<mxfile host="app.diagrams.net" modified="2022-10-31T08:54:20.895Z" agent="5.0 (Windows)" etag="RO3fVVnRXJp-rHFd8NVk" version="20.5.1" type="github">
  <diagram id="HZC__QIkmaJ52SRcgxRA" name="topology">
    <mxGraphModel dx="1185" dy="627" grid="0" gridSize="10" guides="1" tooltips="1" connect="1" arrows="1" fold="1" page="1" pageScale="1" pageWidth="850" pageHeight="1100" background="#495766" math="0" shadow="0">
      <root>
        <mxCell id="0" />
        <mxCell id="1" parent="0" />
        <mxCell id="H_-3jwhrtFPsAw-r3LHZ-92" value="&lt;font style=&quot;font-size: 8px;&quot;&gt;Internet&lt;/font&gt;" style="rounded=1;whiteSpace=wrap;html=1;fontSize=8;strokeWidth=1;fillColor=#BEC8D2;strokeColor=none;fontColor=#495766;fontFamily=Manrope;fontSource=https%3A%2F%2Ffonts.googleapis.com%2Fcss%3Ffamily%3DManrope;verticalAlign=middle;arcSize=17;" parent="1" vertex="1">
          <mxGeometry x="615" y="285" width="61" height="10" as="geometry" />
        </mxCell>
        <mxCell id="H_-3jwhrtFPsAw-r3LHZ-122" value="&lt;div&gt;&lt;b&gt;&lt;u&gt;Core link delays&lt;/u&gt;&lt;/b&gt;&lt;/div&gt;&lt;div&gt;&lt;br&gt;&lt;/div&gt;&lt;div&gt;Static configured&lt;/div&gt;&lt;div&gt;upper plane 10ms&lt;/div&gt;&lt;div&gt;lower plane 20ms&lt;br&gt;&lt;/div&gt;" style="rounded=1;whiteSpace=wrap;html=1;labelBackgroundColor=none;fontFamily=Manrope;fontSource=https%3A%2F%2Ffonts.googleapis.com%2Fcss%3Ffamily%3DManrope;fontSize=11;fontColor=#FFFFFF;fillColor=#FFFFFF;strokeColor=none;opacity=10;rotation=0;" parent="1" vertex="1">
          <mxGeometry x="608" y="117.625" width="161" height="109.25" as="geometry" />
        </mxCell>
        <mxCell id="H_-3jwhrtFPsAw-r3LHZ-123" value="&lt;b&gt;&lt;u&gt;Core link&lt;/u&gt;&lt;/b&gt;&lt;br&gt;&lt;b&gt;192.168.XY.Z/30&lt;br&gt;&lt;/b&gt;&lt;br&gt;where &lt;br&gt;&lt;b&gt;X&lt;/b&gt; is the lower node ID &lt;br&gt;&lt;b&gt;Y&lt;/b&gt; is the higher node ID&lt;br&gt;&lt;b&gt;Z&lt;/b&gt; lower value is applied to lower router ID interface" style="rounded=1;whiteSpace=wrap;html=1;labelBackgroundColor=none;fontFamily=Manrope;fontSource=https%3A%2F%2Ffonts.googleapis.com%2Fcss%3Ffamily%3DManrope;fontSize=11;fontColor=#FFFFFF;fillColor=#FFFFFF;strokeColor=none;opacity=10;rotation=0;" parent="1" vertex="1">
          <mxGeometry x="257" y="117" width="161" height="110.5" as="geometry" />
        </mxCell>
        <mxCell id="H_-3jwhrtFPsAw-r3LHZ-124" value="&lt;font style=&quot;font-size: 16px;&quot;&gt;Topology and underlay addressing plan&lt;/font&gt;" style="text;html=1;align=center;verticalAlign=middle;resizable=0;points=[];autosize=1;fontSize=16;fontFamily=Manrope;fontStyle=1;fontColor=#FFFFFF;" parent="1" vertex="1">
          <mxGeometry x="277" y="522" width="304" height="31" as="geometry" />
        </mxCell>
        <mxCell id="H_-3jwhrtFPsAw-r3LHZ-132" value="&lt;b&gt;&lt;u&gt;System IP&lt;/u&gt;&lt;/b&gt;&lt;br&gt;&lt;b&gt;192.0.2.X/32&lt;br&gt;&lt;/b&gt;&lt;br&gt;where&amp;nbsp; &lt;br&gt;X is the node ID" style="rounded=1;whiteSpace=wrap;html=1;labelBackgroundColor=none;fontFamily=Manrope;fontSource=https%3A%2F%2Ffonts.googleapis.com%2Fcss%3Ffamily%3DManrope;fontSize=11;fontColor=#FFFFFF;fillColor=#FFFFFF;strokeColor=none;opacity=10;rotation=0;" parent="1" vertex="1">
          <mxGeometry x="82" y="119.75" width="161" height="105" as="geometry" />
        </mxCell>
        <mxCell id="H_-3jwhrtFPsAw-r3LHZ-133" value="&lt;div&gt;&lt;u&gt;&lt;b&gt;SR Node SIDs&lt;/b&gt;&lt;/u&gt;&lt;/div&gt;&lt;div&gt;&lt;br&gt;&lt;/div&gt;&lt;div&gt;SRGB 100000-100999&lt;br&gt;&lt;/div&gt;&lt;div&gt;Algo 0 Node SIDs index X&lt;br&gt;&lt;/div&gt;&lt;div&gt;Algo 128 Node SIDs index 1X&lt;br&gt;&lt;/div&gt;&lt;div&gt;where X is the Node ID&lt;br&gt;&lt;/div&gt;" style="rounded=1;whiteSpace=wrap;html=1;labelBackgroundColor=none;fontFamily=Manrope;fontSource=https%3A%2F%2Ffonts.googleapis.com%2Fcss%3Ffamily%3DManrope;fontSize=11;fontColor=#FFFFFF;fillColor=#FFFFFF;strokeColor=none;opacity=10;rotation=0;" parent="1" vertex="1">
          <mxGeometry x="433" y="118.375" width="161" height="107.75" as="geometry" />
        </mxCell>
        <mxCell id="H_-3jwhrtFPsAw-r3LHZ-159" value="" style="group" parent="1" vertex="1" connectable="0">
          <mxGeometry x="289" y="278" width="70" height="60" as="geometry" />
        </mxCell>
        <mxCell id="H_-3jwhrtFPsAw-r3LHZ-138" value="" style="shape=image;verticalLabelPosition=bottom;labelBackgroundColor=default;verticalAlign=top;aspect=fixed;imageAspect=0;image=data:image/png,iVBORw0KGgoAAAANSUhEUgAAAFgAAABYCAYAAABxlTA0AAAAAXNSR0IArs4c6QAAAARnQU1BAACxjwv8YQUAAAAJcEhZcwAAFxEAABcRAcom8z8AAAikSURBVHhe7ZwJbBRVGMe3pUBrASkUlVMpV6EUQSlCCqhEjbYiIQEUETFyVEAr3hDwquCFVE2EYoTWCBTk8KgmiBfGqDEoRbkE5JByWW9UtJTC5/d/MwPD8na7OzOvu4vvS35pd3bezPS337735r039flSskijiKZZf2nBKtGCFaMFK0YLVowWrBgtWDFasGK0YMVowYrRghUTlYIbX8IX1lv+XqwRVYKb9SFfYiYlpPYlX1IP+T6xRtQIhlxfF2rf4wbasHE7jc57lF+nyfeVgYyPS+cyncWHJI4n26+uiQrBpty0jFzavfcAIU6cOEE33jY1NMnnXkoJLfrSkFH308hx0ykzeyT5knvK961rIi7YytxuOSz3oJBrxQlm+JiHapfcqCc1aXcFVR2tFuUK5y7hMh3l+9Y1ERV8WuaeLtcKSB5Rm2QW3Ljt5VT582+izKw5xbx/J/m+dU3EBFtyOXP3VBwSYhBHzSw8Wm38tCKoZC3YjwDVwosvv04LFr0tft+6fQ/d9eBs8TsCdXLA6kILtgG5cWa1UHFK7qLlq1lKGyoqXiVe7913iHz1utJtEx8TrxGoLqQNnxZsg7tQPfuNoH0HK4UMxOIV75GvQQZLuYhKSt8V2yr2/0gNL8jmbe1ofP5Msc2K2yc/Tr6G3U8dUwu2kdCVcoffLUQgFiNzIfeci1lKOhUveUdsh+DElv2N7hZnrF3yHPQSErrxxZt3e1qwDVH/duL+6gx6lbPVl8RiIdesl88Q3KiXIdLXge6Z/jy9ULRUVB3o+548phYsoSHfbTXgrznGHSAX2wIJxnuQjP2R7Xa5QAuW0BT4DegEEyzK8P7+ZYAWHCK1CQ6EFhwiWrBiIi0YjafV4Mred4IWbMLnzhkxhdp1v150JT2T/L8XzI1mHN/8jJ1cIMpu2rqTUtsMNLLZC8laMAvmu8LSVe+LsojyjdupuVeSdRXBNO5F8Uk9xC27FetZsshkt9WFFsxAIBo3vomxSy7fZEp2k8lasEkzBrftfLfon8muqgvHgnGyZL4gliImGj3h/JPDlW4Ez5hZxMdK9Tt2qFzItKEX5y+j48ePi+OJ6qKtQ8mOBfMnnX3tOCopfYezrswTFrLcHbsqxB/lRvD6b7fR3KKl4sMKm5I36CUuO2/hSvrn3ypxPAQavgsuGmRUJbJrCIRjwb6ONPn+Z8zTex8/saxwBDdhwX/+fcQsrSY+W7eREs7pceZgUzAcC45Pp+FjptL+A5Ui27xkHx/zy683GQPu3MJLz2+H90luPZDLbKadu/fR9/wtcAyX37FzL33DDVx19TFTLdERzubcYfkUl5QJafLrkOFYMPcf66VeRkmt+otM85IkRsiVnTcI9VL7ivURWBnkCC5bD3UsN5AYe64+Zgg+8k8VDcrN4+0dpOcNimPB4NzexldYBRgnlp0zGE24DMo5AWXF7MmFNOm+p4VYBORemTPemVzgSvDZBOpVXxrlP/ScqZZEIzcod4JzuUCJ4EAD49EKrpUl2uUa1YJLucBzwWgAMOPrPx0UrWAsIjGTpj8xz1RrNGhX5nggF3gqWGRCGk3i7hsWkPgSuUuDuk22b7RgCn7ltbeEXKNaMBs03N3JyoSDZ4JNuWPueFRcKGLB4jKKwyQl3pOViRaQBPytw6LBwSPv9SZzLTwRbModnfewqdaIcXcWGNVFOP3GSIBMbcKNHG6Fcb1eVmuuBZtyb817xNRqRMhre6MJFd80V4ItubZqARGTclXhWLAkc7H0dOjN9/H2tkanvZEb+GZDdt5giJsU2bE8wGl2OxJsyrU3aFVV1TQ2f6aYfsHIlluSMQYrO3cA4rgebcRlZMfyAtxKO5IctmA+CaZX8qbMMtUagYGRXXv2U+VPv4phQ7fgQRgxHhFKJnOGQe6Wbbulx/KCy9F1QyMoO38wwhbMNw+JKb1py/Y9plo1gQ8KAz+hCkaW/XH4L7O09zH4JnTfusjPHwxHVQRncOsOV9Fmzhgr0EF/oaiUZheWUCH/LJzngMJXafN3u8TxMGwZrmBkGgID7oW4Dtk5HNIla5izZ/ccCUY/MT6dWrYfRJtMIZhewSyAaOAEnZiOYdKC5hW7nzKaNaeEj9Xc79guQUPnpH/sSDAwJWMaxZKMWFH2EdfRmcanHe4FeTTpiYwLe9JTFY4FA0syZ7K9ulhZ9rEx8h+uZC1YgpDcVZrJDTDdE8qUj4UWHAB7dbHtlOQlK9dQXH3bsxS1oQUHwZSMhg9T7zU1x+n6YfnGg9my/WVowbUAydwZb99ziFgzIRZy6DrYQ8EAQtG41c8ITy7QghWjBStGC1ZMqIIxxW7vmYQi2L9MXRFTglGn4zWWmWJC1RIWTDDKYGwahNOj8YqYEoyV6Cxq+Zsf0LSCubx/B3N1UQDBkNsgg5LP60erP/yCRk14mLeH2bNxS8wIxjh0w+60jOVacecDz3KZNLGk9EzBLBJyWebaz9aL7Yhrhk42HiT3P7cqYkkw1i9MvOcp8b4VhuR2lNx6wEnBz+OBcV9rSm7ehz75vFxsQ2CNb1rX68Jf4+uGmKoiMP3vNw+ImDBllni4/FDlL+J1wewFFJ/YidZ+fipz123YSs1a8fGQvbqKCCAYoGFjybdwfWqPaQUv0e4fjH8JNr9kFa0oWyt+R6wr30opLbPrXi6IOcHAlDzaT3JNTY34if/vY8VXG76LnFwQrYKxyj2gYBBAsj2MzI1AtWAnugR3ptJVa4ScX38/HFwwsKqL8WdKRp0b0cy1iCrBLDOj3410NXelBuSMp/jmlxkSZftamJLtDd+68i2UEokGTUZUCYYM3G3FpxtyQl00aEqeMOVJ+vSLDZSCRSvRIBdElWA3QDKGSTHm4GTCVRVnjWAAyViGKnsvUpxVgqMRLVgxWrBitGDFaMGK0YIVowUrRgtWjBasGC1YMU2zjviEZY0isn78D43o8OjRWGtOAAAAAElFTkSuQmCC;" parent="H_-3jwhrtFPsAw-r3LHZ-159" vertex="1">
          <mxGeometry x="10" width="50" height="50" as="geometry" />
        </mxCell>
        <mxCell id="H_-3jwhrtFPsAw-r3LHZ-139" value="3" style="ellipse;whiteSpace=wrap;html=1;aspect=fixed;fontColor=#FFFFFF;fontSize=8;strokeColor=#98A2AE;fontFamily=Manrope;fontSource=https://fonts.googleapis.com/css?family=Manrope;fillColor=#BEC8D2;strokeWidth=1;" parent="H_-3jwhrtFPsAw-r3LHZ-159" vertex="1">
          <mxGeometry x="60" y="20" width="10" height="10" as="geometry" />
        </mxCell>
        <mxCell id="H_-3jwhrtFPsAw-r3LHZ-140" value="2" style="ellipse;whiteSpace=wrap;html=1;aspect=fixed;fontColor=#FFFFFF;fontSize=8;strokeColor=#98A2AE;fontFamily=Manrope;fontSource=https://fonts.googleapis.com/css?family=Manrope;fillColor=#BEC8D2;strokeWidth=1;" parent="H_-3jwhrtFPsAw-r3LHZ-159" vertex="1">
          <mxGeometry x="30" y="50" width="10" height="10" as="geometry" />
        </mxCell>
        <mxCell id="H_-3jwhrtFPsAw-r3LHZ-145" value="1" style="ellipse;whiteSpace=wrap;html=1;aspect=fixed;fontColor=#FFFFFF;fontSize=8;strokeColor=#98A2AE;fontFamily=Manrope;fontSource=https://fonts.googleapis.com/css?family=Manrope;fillColor=#BEC8D2;strokeWidth=1;" parent="H_-3jwhrtFPsAw-r3LHZ-159" vertex="1">
          <mxGeometry y="20" width="10" height="10" as="geometry" />
        </mxCell>
        <mxCell id="H_-3jwhrtFPsAw-r3LHZ-165" style="rounded=0;orthogonalLoop=1;jettySize=auto;html=1;exitX=1;exitY=0.5;exitDx=0;exitDy=0;entryX=0;entryY=0.5;entryDx=0;entryDy=0;endArrow=none;endFill=0;strokeColor=#98A2AE;" parent="1" source="H_-3jwhrtFPsAw-r3LHZ-20" target="H_-3jwhrtFPsAw-r3LHZ-145" edge="1">
          <mxGeometry relative="1" as="geometry" />
        </mxCell>
        <mxCell id="H_-3jwhrtFPsAw-r3LHZ-166" style="edgeStyle=none;rounded=0;orthogonalLoop=1;jettySize=auto;html=1;exitX=1;exitY=0.5;exitDx=0;exitDy=0;entryX=0;entryY=0.5;entryDx=0;entryDy=0;endArrow=none;endFill=0;strokeColor=#98A2AE;" parent="1" source="H_-3jwhrtFPsAw-r3LHZ-139" target="H_-3jwhrtFPsAw-r3LHZ-153" edge="1">
          <mxGeometry relative="1" as="geometry" />
        </mxCell>
        <mxCell id="H_-3jwhrtFPsAw-r3LHZ-167" style="edgeStyle=none;rounded=0;orthogonalLoop=1;jettySize=auto;html=1;exitX=0.5;exitY=1;exitDx=0;exitDy=0;entryX=0.5;entryY=0;entryDx=0;entryDy=0;endArrow=none;endFill=0;strokeColor=#98A2AE;" parent="1" source="H_-3jwhrtFPsAw-r3LHZ-140" target="H_-3jwhrtFPsAw-r3LHZ-142" edge="1">
          <mxGeometry relative="1" as="geometry" />
        </mxCell>
        <mxCell id="H_-3jwhrtFPsAw-r3LHZ-168" style="edgeStyle=none;rounded=0;orthogonalLoop=1;jettySize=auto;html=1;exitX=1;exitY=0.5;exitDx=0;exitDy=0;entryX=0;entryY=0.5;entryDx=0;entryDy=0;endArrow=none;endFill=0;strokeColor=#98A2AE;" parent="1" source="H_-3jwhrtFPsAw-r3LHZ-136" target="H_-3jwhrtFPsAw-r3LHZ-143" edge="1">
          <mxGeometry relative="1" as="geometry" />
        </mxCell>
        <mxCell id="H_-3jwhrtFPsAw-r3LHZ-169" style="edgeStyle=none;rounded=0;orthogonalLoop=1;jettySize=auto;html=1;exitX=1;exitY=0.5;exitDx=0;exitDy=0;entryX=0;entryY=0.5;entryDx=0;entryDy=0;endArrow=none;endFill=0;strokeColor=#98A2AE;" parent="1" source="H_-3jwhrtFPsAw-r3LHZ-144" target="H_-3jwhrtFPsAw-r3LHZ-148" edge="1">
          <mxGeometry relative="1" as="geometry" />
        </mxCell>
        <mxCell id="H_-3jwhrtFPsAw-r3LHZ-170" style="edgeStyle=none;rounded=0;orthogonalLoop=1;jettySize=auto;html=1;exitX=0.5;exitY=1;exitDx=0;exitDy=0;entryX=0.5;entryY=0;entryDx=0;entryDy=0;endArrow=none;endFill=0;strokeColor=#98A2AE;" parent="1" source="H_-3jwhrtFPsAw-r3LHZ-152" target="H_-3jwhrtFPsAw-r3LHZ-147" edge="1">
          <mxGeometry relative="1" as="geometry" />
        </mxCell>
        <mxCell id="H_-3jwhrtFPsAw-r3LHZ-171" style="edgeStyle=none;rounded=0;orthogonalLoop=1;jettySize=auto;html=1;exitX=1;exitY=0.5;exitDx=0;exitDy=0;entryX=0;entryY=0.5;entryDx=0;entryDy=0;endArrow=none;endFill=0;strokeColor=#98A2AE;" parent="1" source="H_-3jwhrtFPsAw-r3LHZ-149" target="H_-3jwhrtFPsAw-r3LHZ-156" edge="1">
          <mxGeometry relative="1" as="geometry" />
        </mxCell>
        <mxCell id="H_-3jwhrtFPsAw-r3LHZ-172" style="edgeStyle=none;rounded=0;orthogonalLoop=1;jettySize=auto;html=1;exitX=1;exitY=0.5;exitDx=0;exitDy=0;entryX=0;entryY=0.5;entryDx=0;entryDy=0;endArrow=none;endFill=0;strokeColor=#98A2AE;" parent="1" source="H_-3jwhrtFPsAw-r3LHZ-151" target="H_-3jwhrtFPsAw-r3LHZ-155" edge="1">
          <mxGeometry relative="1" as="geometry" />
        </mxCell>
        <mxCell id="H_-3jwhrtFPsAw-r3LHZ-173" value="&lt;font style=&quot;font-size: 10px;&quot;&gt;192.0.2.3&lt;/font&gt;" style="text;html=1;align=center;verticalAlign=middle;resizable=0;points=[];autosize=1;fontSize=14;fontFamily=Manrope;fontStyle=0;fontColor=#FFFFFF;" parent="1" vertex="1">
          <mxGeometry x="295" y="254" width="59" height="29" as="geometry" />
        </mxCell>
        <mxCell id="H_-3jwhrtFPsAw-r3LHZ-176" value="&lt;font style=&quot;font-size: 10px;&quot;&gt;192.0.2.5&lt;/font&gt;" style="text;html=1;align=center;verticalAlign=middle;resizable=0;points=[];autosize=1;fontSize=14;fontFamily=Manrope;fontStyle=0;fontColor=#FFFFFF;" parent="1" vertex="1">
          <mxGeometry x="478" y="254" width="59" height="29" as="geometry" />
        </mxCell>
        <mxCell id="H_-3jwhrtFPsAw-r3LHZ-177" value="&lt;font style=&quot;font-size: 10px;&quot;&gt;192.0.2.2&lt;/font&gt;" style="text;html=1;align=center;verticalAlign=middle;resizable=0;points=[];autosize=1;fontSize=14;fontFamily=Manrope;fontStyle=0;fontColor=#FFFFFF;" parent="1" vertex="1">
          <mxGeometry x="616.5" y="400" width="59" height="29" as="geometry" />
        </mxCell>
        <mxCell id="H_-3jwhrtFPsAw-r3LHZ-179" style="edgeStyle=none;rounded=0;orthogonalLoop=1;jettySize=auto;html=1;exitX=0.5;exitY=0;exitDx=0;exitDy=0;strokeColor=#98A2AE;endArrow=none;endFill=0;entryX=0.5;entryY=1;entryDx=0;entryDy=0;" parent="1" source="H_-3jwhrtFPsAw-r3LHZ-91" target="H_-3jwhrtFPsAw-r3LHZ-157" edge="1">
          <mxGeometry relative="1" as="geometry">
            <mxPoint x="111.16091954022994" y="383.0919540229886" as="targetPoint" />
          </mxGeometry>
        </mxCell>
        <mxCell id="H_-3jwhrtFPsAw-r3LHZ-91" value="&lt;font color=&quot;#495766&quot;&gt;Home&lt;/font&gt;" style="rounded=1;whiteSpace=wrap;html=1;fontSize=8;strokeWidth=1;fillColor=#BEC8D2;strokeColor=none;fontColor=#FFFFFF;fontFamily=Manrope;fontSource=https%3A%2F%2Ffonts.googleapis.com%2Fcss%3Ffamily%3DManrope;" parent="1" vertex="1">
          <mxGeometry x="155.5" y="453" width="61" height="12" as="geometry" />
        </mxCell>
        <mxCell id="H_-3jwhrtFPsAw-r3LHZ-180" style="edgeStyle=none;rounded=0;orthogonalLoop=1;jettySize=auto;html=1;exitX=0.5;exitY=0;exitDx=0;exitDy=0;entryX=0.5;entryY=1;entryDx=0;entryDy=0;strokeColor=#98A2AE;endArrow=none;endFill=0;" parent="1" source="H_-3jwhrtFPsAw-r3LHZ-158" target="H_-3jwhrtFPsAw-r3LHZ-92" edge="1">
          <mxGeometry relative="1" as="geometry" />
        </mxCell>
        <mxCell id="H_-3jwhrtFPsAw-r3LHZ-182" value="&lt;font style=&quot;font-size: 8px;&quot;&gt;10ms&lt;/font&gt;" style="text;html=1;strokeColor=none;fillColor=none;align=center;verticalAlign=middle;whiteSpace=wrap;rounded=0;fontSize=9;" parent="1" vertex="1">
          <mxGeometry x="404" y="310" width="28" height="12" as="geometry" />
        </mxCell>
        <mxCell id="H_-3jwhrtFPsAw-r3LHZ-184" value="&lt;font style=&quot;font-size: 8px;&quot;&gt;20ms&lt;/font&gt;" style="text;html=1;strokeColor=none;fillColor=none;align=center;verticalAlign=middle;whiteSpace=wrap;rounded=0;fontSize=9;" parent="1" vertex="1">
          <mxGeometry x="404" y="440" width="28" height="12" as="geometry" />
        </mxCell>
        <mxCell id="H_-3jwhrtFPsAw-r3LHZ-185" value="&lt;font style=&quot;font-size: 8px;&quot;&gt;20ms&lt;/font&gt;" style="text;html=1;strokeColor=none;fillColor=none;align=center;verticalAlign=middle;whiteSpace=wrap;rounded=0;fontSize=9;" parent="1" vertex="1">
          <mxGeometry x="335" y="370" width="28" height="12" as="geometry" />
        </mxCell>
        <mxCell id="H_-3jwhrtFPsAw-r3LHZ-186" value="&lt;font style=&quot;font-size: 8px;&quot;&gt;20ms&lt;/font&gt;" style="text;html=1;strokeColor=none;fillColor=none;align=center;verticalAlign=middle;whiteSpace=wrap;rounded=0;fontSize=9;" parent="1" vertex="1">
          <mxGeometry x="468" y="370" width="28" height="12" as="geometry" />
        </mxCell>
        <mxCell id="H_-3jwhrtFPsAw-r3LHZ-187" value="&lt;font style=&quot;font-size: 8px;&quot;&gt;10ms&lt;/font&gt;" style="text;html=1;strokeColor=none;fillColor=none;align=center;verticalAlign=middle;whiteSpace=wrap;rounded=0;fontSize=9;" parent="1" vertex="1">
          <mxGeometry x="258" y="354" width="28" height="12" as="geometry" />
        </mxCell>
        <mxCell id="H_-3jwhrtFPsAw-r3LHZ-188" value="&lt;font style=&quot;font-size: 8px;&quot;&gt;20ms&lt;/font&gt;" style="text;html=1;strokeColor=none;fillColor=none;align=center;verticalAlign=middle;whiteSpace=wrap;rounded=0;fontSize=9;" parent="1" vertex="1">
          <mxGeometry x="258" y="401" width="28" height="12" as="geometry" />
        </mxCell>
        <mxCell id="H_-3jwhrtFPsAw-r3LHZ-189" value="&lt;font style=&quot;font-size: 8px;&quot;&gt;10ms&lt;/font&gt;" style="text;html=1;strokeColor=none;fillColor=none;align=center;verticalAlign=middle;whiteSpace=wrap;rounded=0;fontSize=9;" parent="1" vertex="1">
          <mxGeometry x="545" y="348" width="28" height="12" as="geometry" />
        </mxCell>
        <mxCell id="H_-3jwhrtFPsAw-r3LHZ-190" value="10ms" style="text;html=1;strokeColor=none;fillColor=none;align=center;verticalAlign=middle;whiteSpace=wrap;rounded=0;fontSize=9;" parent="1" vertex="1">
          <mxGeometry x="573" y="429" width="28" height="12" as="geometry" />
        </mxCell>
        <mxCell id="H_-3jwhrtFPsAw-r3LHZ-154" value="" style="shape=image;verticalLabelPosition=bottom;labelBackgroundColor=default;verticalAlign=top;aspect=fixed;imageAspect=0;image=data:image/png,iVBORw0KGgoAAAANSUhEUgAAAFgAAABYCAYAAABxlTA0AAAAAXNSR0IArs4c6QAAAARnQU1BAACxjwv8YQUAAAAJcEhZcwAAFxEAABcRAcom8z8AAAikSURBVHhe7ZwJbBRVGMe3pUBrASkUlVMpV6EUQSlCCqhEjbYiIQEUETFyVEAr3hDwquCFVE2EYoTWCBTk8KgmiBfGqDEoRbkE5JByWW9UtJTC5/d/MwPD8na7OzOvu4vvS35pd3bezPS337735r039flSskijiKZZf2nBKtGCFaMFK0YLVowWrBgtWDFasGK0YMVowYrRghUTlYIbX8IX1lv+XqwRVYKb9SFfYiYlpPYlX1IP+T6xRtQIhlxfF2rf4wbasHE7jc57lF+nyfeVgYyPS+cyncWHJI4n26+uiQrBpty0jFzavfcAIU6cOEE33jY1NMnnXkoJLfrSkFH308hx0ykzeyT5knvK961rIi7YytxuOSz3oJBrxQlm+JiHapfcqCc1aXcFVR2tFuUK5y7hMh3l+9Y1ERV8WuaeLtcKSB5Rm2QW3Ljt5VT582+izKw5xbx/J/m+dU3EBFtyOXP3VBwSYhBHzSw8Wm38tCKoZC3YjwDVwosvv04LFr0tft+6fQ/d9eBs8TsCdXLA6kILtgG5cWa1UHFK7qLlq1lKGyoqXiVe7913iHz1utJtEx8TrxGoLqQNnxZsg7tQPfuNoH0HK4UMxOIV75GvQQZLuYhKSt8V2yr2/0gNL8jmbe1ofP5Msc2K2yc/Tr6G3U8dUwu2kdCVcoffLUQgFiNzIfeci1lKOhUveUdsh+DElv2N7hZnrF3yHPQSErrxxZt3e1qwDVH/duL+6gx6lbPVl8RiIdesl88Q3KiXIdLXge6Z/jy9ULRUVB3o+548phYsoSHfbTXgrznGHSAX2wIJxnuQjP2R7Xa5QAuW0BT4DegEEyzK8P7+ZYAWHCK1CQ6EFhwiWrBiIi0YjafV4Mred4IWbMLnzhkxhdp1v150JT2T/L8XzI1mHN/8jJ1cIMpu2rqTUtsMNLLZC8laMAvmu8LSVe+LsojyjdupuVeSdRXBNO5F8Uk9xC27FetZsshkt9WFFsxAIBo3vomxSy7fZEp2k8lasEkzBrftfLfon8muqgvHgnGyZL4gliImGj3h/JPDlW4Ez5hZxMdK9Tt2qFzItKEX5y+j48ePi+OJ6qKtQ8mOBfMnnX3tOCopfYezrswTFrLcHbsqxB/lRvD6b7fR3KKl4sMKm5I36CUuO2/hSvrn3ypxPAQavgsuGmRUJbJrCIRjwb6ONPn+Z8zTex8/saxwBDdhwX/+fcQsrSY+W7eREs7pceZgUzAcC45Pp+FjptL+A5Ui27xkHx/zy683GQPu3MJLz2+H90luPZDLbKadu/fR9/wtcAyX37FzL33DDVx19TFTLdERzubcYfkUl5QJafLrkOFYMPcf66VeRkmt+otM85IkRsiVnTcI9VL7ivURWBnkCC5bD3UsN5AYe64+Zgg+8k8VDcrN4+0dpOcNimPB4NzexldYBRgnlp0zGE24DMo5AWXF7MmFNOm+p4VYBORemTPemVzgSvDZBOpVXxrlP/ScqZZEIzcod4JzuUCJ4EAD49EKrpUl2uUa1YJLucBzwWgAMOPrPx0UrWAsIjGTpj8xz1RrNGhX5nggF3gqWGRCGk3i7hsWkPgSuUuDuk22b7RgCn7ltbeEXKNaMBs03N3JyoSDZ4JNuWPueFRcKGLB4jKKwyQl3pOViRaQBPytw6LBwSPv9SZzLTwRbModnfewqdaIcXcWGNVFOP3GSIBMbcKNHG6Fcb1eVmuuBZtyb817xNRqRMhre6MJFd80V4ItubZqARGTclXhWLAkc7H0dOjN9/H2tkanvZEb+GZDdt5giJsU2bE8wGl2OxJsyrU3aFVV1TQ2f6aYfsHIlluSMQYrO3cA4rgebcRlZMfyAtxKO5IctmA+CaZX8qbMMtUagYGRXXv2U+VPv4phQ7fgQRgxHhFKJnOGQe6Wbbulx/KCy9F1QyMoO38wwhbMNw+JKb1py/Y9plo1gQ8KAz+hCkaW/XH4L7O09zH4JnTfusjPHwxHVQRncOsOV9Fmzhgr0EF/oaiUZheWUCH/LJzngMJXafN3u8TxMGwZrmBkGgID7oW4Dtk5HNIla5izZ/ccCUY/MT6dWrYfRJtMIZhewSyAaOAEnZiOYdKC5hW7nzKaNaeEj9Xc79guQUPnpH/sSDAwJWMaxZKMWFH2EdfRmcanHe4FeTTpiYwLe9JTFY4FA0syZ7K9ulhZ9rEx8h+uZC1YgpDcVZrJDTDdE8qUj4UWHAB7dbHtlOQlK9dQXH3bsxS1oQUHwZSMhg9T7zU1x+n6YfnGg9my/WVowbUAydwZb99ziFgzIRZy6DrYQ8EAQtG41c8ITy7QghWjBStGC1ZMqIIxxW7vmYQi2L9MXRFTglGn4zWWmWJC1RIWTDDKYGwahNOj8YqYEoyV6Cxq+Zsf0LSCubx/B3N1UQDBkNsgg5LP60erP/yCRk14mLeH2bNxS8wIxjh0w+60jOVacecDz3KZNLGk9EzBLBJyWebaz9aL7Yhrhk42HiT3P7cqYkkw1i9MvOcp8b4VhuR2lNx6wEnBz+OBcV9rSm7ehz75vFxsQ2CNb1rX68Jf4+uGmKoiMP3vNw+ImDBllni4/FDlL+J1wewFFJ/YidZ+fipz123YSs1a8fGQvbqKCCAYoGFjybdwfWqPaQUv0e4fjH8JNr9kFa0oWyt+R6wr30opLbPrXi6IOcHAlDzaT3JNTY34if/vY8VXG76LnFwQrYKxyj2gYBBAsj2MzI1AtWAnugR3ptJVa4ScX38/HFwwsKqL8WdKRp0b0cy1iCrBLDOj3410NXelBuSMp/jmlxkSZftamJLtDd+68i2UEokGTUZUCYYM3G3FpxtyQl00aEqeMOVJ+vSLDZSCRSvRIBdElWA3QDKGSTHm4GTCVRVnjWAAyViGKnsvUpxVgqMRLVgxWrBitGDFaMGK0YIVowUrRgtWjBasGC1YMU2zjviEZY0isn78D43o8OjRWGtOAAAAAElFTkSuQmCC;" parent="1" vertex="1">
          <mxGeometry x="621" y="358" width="50" height="50" as="geometry" />
        </mxCell>
        <mxCell id="H_-3jwhrtFPsAw-r3LHZ-155" value="2" style="ellipse;whiteSpace=wrap;html=1;aspect=fixed;fontColor=#FFFFFF;fontSize=8;strokeColor=#98A2AE;fontFamily=Manrope;fontSource=https://fonts.googleapis.com/css?family=Manrope;fillColor=#BEC8D2;strokeWidth=1;" parent="1" vertex="1">
          <mxGeometry x="611" y="372" width="10" height="10" as="geometry" />
        </mxCell>
        <mxCell id="H_-3jwhrtFPsAw-r3LHZ-156" value="3" style="ellipse;whiteSpace=wrap;html=1;aspect=fixed;fontColor=#FFFFFF;fontSize=8;strokeColor=#98A2AE;fontFamily=Manrope;fontSource=https://fonts.googleapis.com/css?family=Manrope;fillColor=#BEC8D2;strokeWidth=1;" parent="1" vertex="1">
          <mxGeometry x="611" y="384" width="10" height="10" as="geometry" />
        </mxCell>
        <mxCell id="H_-3jwhrtFPsAw-r3LHZ-158" value="1" style="ellipse;whiteSpace=wrap;html=1;aspect=fixed;fontColor=#FFFFFF;fontSize=8;strokeColor=#98A2AE;fontFamily=Manrope;fontSource=https://fonts.googleapis.com/css?family=Manrope;fillColor=#BEC8D2;strokeWidth=1;" parent="1" vertex="1">
          <mxGeometry x="641" y="344" width="10" height="10" as="geometry" />
        </mxCell>
        <mxCell id="mzRQhtEMuZsxOnQZLncc-2" value="" style="shape=image;verticalLabelPosition=bottom;labelBackgroundColor=default;verticalAlign=top;aspect=fixed;imageAspect=0;image=data:image/png,iVBORw0KGgoAAAANSUhEUgAAAFgAAABYCAYAAABxlTA0AAAAAXNSR0IArs4c6QAAAARnQU1BAACxjwv8YQUAAAAJcEhZcwAAFxEAABcRAcom8z8AAAyfSURBVHhe7Z0JrF1FGcdfoSyhCrJJRWipBjUqCkipimhRQBOWRLBRFotBpBKFgKBRQINbcAEXEK3gHhfQiIq7RcPSYlm6QFna9ypQ9rZA2SnbG/+/ufM1w+Hc5cw959776PmSf145d2bOzH+++eb75swMQ0NXj84eWjQ6Z2h+jUoggoeHhp0bWlKjEojgxUOL9Y+ra1SCmuCKURNcMWqCK0ZNcMWoCa4YNcEVoya4YtQEV4ya4IoxkATPD7hKmNcGpPmvQPq8svqNgSEYgow0Ebb1dc69SbH8wcucO+ZW5z61wrkz7nLuK3c7d8odzs26zblDh53b40bntlv4wvy57+gH+kpwpKVbXOvcAUudO+se5658xLlVT7uO5aFnnbvuMed+cJ9zHxpxbnsIN+3vt2b3hWDTNmnau2527vyVzt31VGCrBFnzjHMXP+DcIdL+ja8J7+oX0T0nOBD7AQ1vNDUrT406t1Da+KNVMg3LnfutiNIjL39/yLkL9NzkGqU7Qmm+e2+jrIelyVm5+QnnTpA5mdAvontGMHZRDdxXGjs3Q+xzwr9E3izZ2p2pCyRc4dw2C5y7J5iKB6SVr2Doq5wbRRqyVsy/+xY9u7yRZwf9fphMxEXqlCzZy550bqY6w9cD85FXxyrQE4JF7DaatC6QKYjlQZGA9u16g9KEDvB/IVgk/OfhkFByxP/0bG4jzR6a/J4Oan23TMuWKtvnszKUd7LIPk2T4a1rG+lM/rbGudfRXsrqhTZXTrAaMv0m54alQSbPiJzvaUKahEYGQp6XR89milCTix/MpFGZZ8ibMDlXZfly4jIgW+mYPE8V0fdrBJgwKR5Nh5GnapIrI5iKqwGflP2LRyu2Eg30jYOEbD49e5k00kwDZOywSM9jglX2xvp7UzAVz6rDdqfMbEeFtBC9kzrz1/c30puco44ZZ5qfzVcWKiGYRqmxX5fLFcsX5cduGH7LzQdExpci7TxF/i/PXpBOHfQ+uXUmTIAty4VE5fmINDe2z3/U6NjMfs/mKQOlExwI/JZsqwla+H65TJ4ofs/LB9TIl2tiw81Clst+bsrs3yyP3vNX2VQTXD4/MvLSGlQHbP7SyGQxwU7gtypILpVgiFADvxFp7h2ahKYyfPO0MAul+XKkvUfLq2iZT+/aU/bdBKJaarFB+SbKDM17NGSU0FHjqX8rBUhBqQSr4sffHmosYWJ5Ax7CZQINb6O92F6L4HCrsLNtG6xy/xRp8VSFzi1Jpjx+lxu4kf570eMho+TH8rH9CCiT5NIIVsWma4haUIA8KQf3Ck1qZ0or3yN/FQJ942gEfxmS1hg9+0TUOR/X5NiR1ivfXpEW/3R145n/jbJ5R/ROIrvdNKJY27hE9nd15F0gJ6gOHb23U5RCsBqxldyhFW3C3XulnQzF0+9sTFCT5B2MJ39o/AJFZsjtsr3+OcRAUitAoPL/O/jMTGBb0JFXNn7fVt7DO9UBEHehvIiRyPbmCS5kU48kBaUQrAaiOSZ4C3vKNGCLr9cQJFLLkyf0A67WHxR5kd+0/zciYoomu4ki56Uia1N1nn9PRCyaOEHPt1W6yUrDO00wGb9SedeqwwhmmskKdeQvlO5Aja4PR373QtV5I3tXtq1F0TXBIpdw1YSJw/uWaKUwTmneKLIZ8hCHBj0X25Ecwa9FkwiP79SoIBqjI5ZEwMNgxDDE6ah2ZSJEff/QRHiaRtDe0mo6yOqJWZgdrXOcrOCkFFPRFcHq4Q0EG9qEr6zh+gpHaWIbiNvFxHfY8oafjB/KgkwH/BQSOmaOyCRiZD15mia/zTEd1vlmfqyeer65CMfrQXAVcRl9ekuTgq4IVkU/KKJMfMjartdpVKTh2Mpp0iYzI5iKI0ec+5w06GvqgO+vdO6X0nwWcC4M4N+Mhh/qt7Pkb39eGvlR1YPFeJPjmCSxw/aeLKF5ULrYVGDiutbiZIJV2XHCguDmPCJb98psSNsJ1IDPikyTXRkBcqHWEWPk5CFOIzIZ8muCzf2dOsE/z3tnM6g9jEhz3QiQutbiZILVwH0i2/sdaVJSb6vyl2ooI7fJrm7SKnJrB9Xpn6Gs++SxMEEWLkudcng0Kru2xckEqyI/D54Dtve1BBRoVV7aZhC5uFSrgi/KsC+sdTGUlwnM5K0yPYXrpA5hnsBVRPCC0OrkTk8iWC8jaFgdoq5L5YMmDSM1/m1RkHAiTn43BKs8AhoTb4dTylOeeKFqakpHGZIIVgUOXBbeLpnVRUOO1Qxv4hdrUhsC1Mnbax54LMyYTIJJ9VId0H4TvmYnlQNSCf52WC3jG9qryJ+iwSqHLxoIpEBOUjkGjawN9dc+KV2uMD2pPJVDJGkfCS5LHaGgMMHBHs0PK1GLZaPsWW76VlCl/xwWam5RY8Z3M8EZpH2XhDKxo8mTpjr/Z2GOwSfeOtWbKEywXrKlXkaUhaxbgcpL2wqhU5hEEG/HuzEPhmhUPCo3a8fUUaFyMH0mb0+1w4UJ1kt2V1Rk4lefEgneTH6r7YfAIymL4E+vaJSJvDl14UZ59tacYMKXkKR2FiZYLzl4OLxVcgBfKlIaIK1iB44FBt8kakppQBYq46goGmMJNbV+rPatDRNm8kSXQjCxPcL6wWuu1zNCUhpRBMrDpGaf30/m2xv7G/LSFoGiwNhVe+/SxrPctK0QggsbYckeSQrBnwmhLZ3LZ5391aD91ZAi2E+aRUfZKth5asB+snN5aYuAcuPQm/WMpHLVJkanEcxasic+j5NWSCH41ChaWl+EVb+a4AqlpwSbiWB0nyjbOUOT3oyRglCek5R3NJiIn8iLmKGhmZu2CDSs4y/TbC5JKlf1Y9HHNsD01ETEk9yryZtdXuwEmuT4JGST3Em4e0xyeWmLQGXEq3zY06RymeTkSvZlkqvdtAIoTLAquz4GGmxG7A3B6tk6VC6AwgQHYurFng5RmGCglw/qcuUG+ju2lyuBiBnUBXc+vD4eJqayFty/0PMFd/UwewxWvog/GcU7RNnBmdzxSQQDVcJs1KB+9GS/ReE6SXn46Mm2KqQ/Hz2BKj490hZs6SB8tmePMMJGw5ewNapoWeokjoaZsAuzP5/tVXF6lhOWSFkbT7zfWnTjCQRUtPFku75tPAFqQBlbp5hQwrzkzc7MkcaCEnZwtiYqDq/EW6cM58sHP1sjh0noGAUCXW+dUt3jKPBMostutBd0RbDAoRbTYmyx10AaZGlolGmb/mLfdgmb/wiP8Vk5LxGWJEoT2/x3XsHNf+RDBmPzH1Bl4+2rV7F9lYrTCAG/FELRKCax5SLTtLWZsH2VziJaZLcjW1XjrasAH5Xtq3gyuGXkaSdjb/uqQRWMN2BzDGsvaTIn52+QPWvWdohZot85uM1ypaXDJOwk7eGaAvaX+QPddFoEoj4IIsKapDQsxphwcLGbDdjkG5wN2EDDqJMjBKyt/kUmgSMELCOyTsBGEa9BGrJlHSHwpgD7q9/9EQIFMMeHEdTuCAEjx+/w5N1xG1NRCsFAjaQh8fDnEAxh5lel0fvoN392gooHQj05kBTyH6dAw6Rfh2A4JbUufxkojWAgQuKTQhzjej0BSI+OcWFi3tLFMS6uUPDktntnEZRKMBVTBeOdib08iMje4JbkGpRvomw3E7IJpmvwDyKCoCHxUVrsIrePeLJaNUBaXPQoLWeUTYocpWWEmIydo7SGQDIHEGNBO72WtCJBBKQcBuceiJbaC3nKkz0Mjscxtg6DGwKR2esM5mpYTrNgJK9Retb2OgOl2UR/4+sMms78vEMdNEXeBF5ELBx7GJvXGcRQ4/jwGF/IASFEWJMhDqKzxOhZuws5Yi1vdSEH14OdrqDBPnEhdNpRiiR9nlYmqwxUTjBQQ/CTWVeIhSDgHGnRbngaEEKD+RtMjPm2SHylDAe+7XM/H03zrpSZos7jeJeFvibPu1Imr65loycEg9B4LkXK3jaF78ySJb6v30wIwXKjml2KRKiM4Gf7z/LhUqQd9fvhI42bqljdi4X1jiPRWuqRZ0qqQs8INgQt5VovTuJnxa71ImD4mLSWZcegrN5jwFc14VovSMNEzFNZ8eRlgp1eP671ikEjA9HvkB/LtzPbH1GG4Ob9Xh3DLSsEE30h1tAXgg00muEqAuxqRZYw+RrMQcJOhUV2u1qRfWX11Yp5MK0Omr2VJq5d5HodJC0komOTIZMW1xawWftYDftDZGYIjevLQVMQaXdLkAZC+62pzTCwBL9YUBNcMWqCK0ZNcMWoCa4YNcEVoya4YtQEV4ya4IpRE1wxRHD9P02tEiK4/t/+VobROf8Hk4MBiUrQLJoAAAAASUVORK5CYII=;fontSize=6;fontColor=#495766;" vertex="1" parent="1">
          <mxGeometry x="615" y="253.5" width="30" height="30" as="geometry" />
        </mxCell>
        <mxCell id="mzRQhtEMuZsxOnQZLncc-3" value="" style="shape=image;verticalLabelPosition=bottom;labelBackgroundColor=default;verticalAlign=top;aspect=fixed;imageAspect=0;image=data:image/png,iVBORw0KGgoAAAANSUhEUgAAAFgAAABZCAYAAAC6yeORAAAAAXNSR0IArs4c6QAAAARnQU1BAACxjwv8YQUAAAAJcEhZcwAAFxEAABcRAcom8z8AAAegSURBVHhe7ZxpiJZVFMdfS9twawHBNLQNSy2SyIow0zaxoLJoxSAizYJWovWDVKAFRVQfivbtg5ARQdC+TeroOI7LOI6ajqOjzriv4zqn//957p0uj8/IjPOcd5nOgT/vO8967++ee+4y7725XHlLlUlBlS2LcuUyI5erEjEpqAaa01IDD8YXU/YiZHpy6klT52WAlWWAlWWAlWWAlWWAlWWAlWWAlWWAlVW0gOc4zYZmBfo7ofAcr/X3pT2zECoKwB5kCA3HelWIDEICL1okctVSkRuWidyx4j/dtlzkOhy7olpkGK4ZuEDklHnxva2FEYJPe7e2CgY4hIDv5yEhEwDtlQaRGVtEFuwRWbtfZPdhabftPCRSt09k3m6RzzaJvLhWZHytyIBKvMMXoCu81DRpKO+AXUZPnCsypkbkzQ2ACSD7OgCyo0bwZTtFpq4TuWwJ3k/ArmBT05il8gbYZYre9BI8q7bZ5T7F6Llzdol8tVnktfUiT68ReWBV7OG3ICyMRsGMhW7F99tx7EGce65e5A0U1tfw/vkosKYD7mEpVo5nP7xapA/DiTbovABGJnrCY1+GB2056HIZWPVekfcaRSb+IzJ8sUhvxN7I030ISYrHj3YOwM6YH3srQX6BglqF0JG01Tg2GYXT+q60tHdW6oCR6SuR0SWAGBozPA3x9nKc6+6uCwF1yqt4b1hA+GTjNwYN5fsoyM2JQv5hu8hZjNO8Nu15nZEqYCR4PFr55haXE9hK5zW9WT3LIA807f4sxXc44P3h3VMRprYhNntbg7A0HD2R6Jq0+49VaoCR0IuR4L1B4/XORpG+Hmw+oLYlejfScA66dd9tc4mDrUDhn+7DU9p9xyI1wEjkzztcymFPoqGKwGaZ+M6K3gp9hC6dNzaUmYYKFcCAOATe6yPDl2hkCu61bQlpPR7pYs+DtgG9Dw5wMkurCmB4wF0r4wTTOAJTaUCyEgr/KdQw2mF4xVDG4qxqmhZg9k293Y/uV+TBadcWg5C2aehve7sEXcXMGrt8eDCHrj1Y5Yop/nohrZzDaHQDE3rwhaXgwXcHgGkzt8aDjaIJFSxweO4g9H8r97hEwg4B8AWlCJhWhYxci85+VP0IuhCNHt/JdwPgfUjj+sSQuuQAs8olh8czt4iMJWifWQLXhM1nu0I9GbVownKR34IuJI29B1rJAUZ6o3nb14NGxFsFYvMLGFGNQKPS3YcPD5wZJJiOgPfX897gWT0xuLkaBTodaViemGTiQGgKGmTOWdBKMkSMprf+iUxWi3wfjJxCW4aMs7/8eB26dTUig5GwXhz18XkE7jzwCPlzANIN1/ZFH3bIQpGbalF49SLfIPZzdi5pBwDycwwwhuLa3O8ik0oZcNQP9iAgTv5w9qwhJePemuFZ63CeXv4TqjMn4XnPWxhuv+3E7x82xQ3oL7hmIWI8ewMHWW3asKV7RV5tAESC9QWEz0dQsLTSBuzPu0xxXoKTQZx05xxtOPmSlRH4r4DPyfZRqEE9fCgK09PlAHsxXjKzFL73Q5dpFMIJqytjNr2WjdEieCb/FURYm9Bg8j8UFCfVN0KcoWNX68ftcZghTM4tcz74tPl4NmF5qGkxvcsCDuUbJ+fdrcKx43D+JHg7Y3IfxNgBGBicCXFinvMG/PdT9AwP0qstoEnh2q4PuC0RUFLMPJU8nnZ/e/S/BpwPGWBlGWBlGWBlGWBlGWBlGWBlGWBlGWBlGWBlGWBlGWBlGWBlGWBlGWBlGWBlGWBlGWBlGWBlGWBlGWBlGWBlGWBlGWBlGWBlGWBlGWBlGWBllSLgewLA15cA4JJbQnBnEjCOpV5bDCoTecKt9ATfElgnB28dsSROMO3dRhwr1pWe/Nkr0vvHzjitXBEV/Wi7Mz+HDaUCGInrDnF9BY3VjrtE5f6Kz6XeUwjRS1Hw/EW8t0824ViWtU0FMIVEcnWRN66XewbVsBsBMwOFBM13A2yvufEeFt7ovYMX4FxW4YFSA0wB5GTXeHgr2yVyI/c1ZyYIOsvMHE2EyoYWYE/A3xPRRtQEa+Z2HIoXyWTqvZQqYAoJ5srKJnhHaLO489MqkYHcK4cZZ8b4SeBZeDefwWf5Z+P7sIUiz9cfuX8Ql3aNRJuROVxKHTCFhHPR9aeIb2ylQ6PncFMiZpwe1M83MB6MF/8+mpLX4r1cRT8OPRhudjcbBcq2ILRdePd0nIu293L3ZK68AKacN9FTPm5K396Lxh2huP0Bl2MRzBSEGC7F5V5pl+Je7uXAHgrF71yqdQ3OsRF9DIMFLv/iWujF8EoCTLP6/fF15zLzLBDNMJU3wF7O2/rDo7lpx7db47Vu2sY90rjdIgsi2vFKG6xX3gF7MXOuOp9aEXsod/jj+uFKeDCX2XI9cUeNi7vrcC9j/AeoKY+iBnBvtmjTUL6PyiLGt1cFAxwqjLn8xN9ccHg+GqWRiMs318bb0kwCLO6t8yziNcXR10M4di96BONwDUPI2chQ6w6sHqh7Zuq7tVUUgJMiDMrF7Vb4XhwVUuExfx3v8fenPTvfKkrAXUkGWFkGWFkGWFkGWFkGWFkGWFkGWFkGWFkGWFkGWFkGWFkR4JaqfwGLualJ3SD7dgAAAABJRU5ErkJggg==;fontSize=6;fontColor=#495766;" vertex="1" parent="1">
          <mxGeometry x="647" y="253.5" width="29.66" height="30" as="geometry" />
        </mxCell>
        <mxCell id="H_-3jwhrtFPsAw-r3LHZ-134" value="" style="shape=image;verticalLabelPosition=bottom;labelBackgroundColor=default;verticalAlign=top;aspect=fixed;imageAspect=0;image=data:image/png,iVBORw0KGgoAAAANSUhEUgAAAFgAAABYCAYAAABxlTA0AAAAAXNSR0IArs4c6QAAAARnQU1BAACxjwv8YQUAAAAJcEhZcwAAFxEAABcRAcom8z8AAAikSURBVHhe7ZwJbBRVGMe3pUBrASkUlVMpV6EUQSlCCqhEjbYiIQEUETFyVEAr3hDwquCFVE2EYoTWCBTk8KgmiBfGqDEoRbkE5JByWW9UtJTC5/d/MwPD8na7OzOvu4vvS35pd3bezPS337735r039flSskijiKZZf2nBKtGCFaMFK0YLVowWrBgtWDFasGK0YMVowYrRghUTlYIbX8IX1lv+XqwRVYKb9SFfYiYlpPYlX1IP+T6xRtQIhlxfF2rf4wbasHE7jc57lF+nyfeVgYyPS+cyncWHJI4n26+uiQrBpty0jFzavfcAIU6cOEE33jY1NMnnXkoJLfrSkFH308hx0ykzeyT5knvK961rIi7YytxuOSz3oJBrxQlm+JiHapfcqCc1aXcFVR2tFuUK5y7hMh3l+9Y1ERV8WuaeLtcKSB5Rm2QW3Ljt5VT582+izKw5xbx/J/m+dU3EBFtyOXP3VBwSYhBHzSw8Wm38tCKoZC3YjwDVwosvv04LFr0tft+6fQ/d9eBs8TsCdXLA6kILtgG5cWa1UHFK7qLlq1lKGyoqXiVe7913iHz1utJtEx8TrxGoLqQNnxZsg7tQPfuNoH0HK4UMxOIV75GvQQZLuYhKSt8V2yr2/0gNL8jmbe1ofP5Msc2K2yc/Tr6G3U8dUwu2kdCVcoffLUQgFiNzIfeci1lKOhUveUdsh+DElv2N7hZnrF3yHPQSErrxxZt3e1qwDVH/duL+6gx6lbPVl8RiIdesl88Q3KiXIdLXge6Z/jy9ULRUVB3o+548phYsoSHfbTXgrznGHSAX2wIJxnuQjP2R7Xa5QAuW0BT4DegEEyzK8P7+ZYAWHCK1CQ6EFhwiWrBiIi0YjafV4Mred4IWbMLnzhkxhdp1v150JT2T/L8XzI1mHN/8jJ1cIMpu2rqTUtsMNLLZC8laMAvmu8LSVe+LsojyjdupuVeSdRXBNO5F8Uk9xC27FetZsshkt9WFFsxAIBo3vomxSy7fZEp2k8lasEkzBrftfLfon8muqgvHgnGyZL4gliImGj3h/JPDlW4Ez5hZxMdK9Tt2qFzItKEX5y+j48ePi+OJ6qKtQ8mOBfMnnX3tOCopfYezrswTFrLcHbsqxB/lRvD6b7fR3KKl4sMKm5I36CUuO2/hSvrn3ypxPAQavgsuGmRUJbJrCIRjwb6ONPn+Z8zTex8/saxwBDdhwX/+fcQsrSY+W7eREs7pceZgUzAcC45Pp+FjptL+A5Ui27xkHx/zy683GQPu3MJLz2+H90luPZDLbKadu/fR9/wtcAyX37FzL33DDVx19TFTLdERzubcYfkUl5QJafLrkOFYMPcf66VeRkmt+otM85IkRsiVnTcI9VL7ivURWBnkCC5bD3UsN5AYe64+Zgg+8k8VDcrN4+0dpOcNimPB4NzexldYBRgnlp0zGE24DMo5AWXF7MmFNOm+p4VYBORemTPemVzgSvDZBOpVXxrlP/ScqZZEIzcod4JzuUCJ4EAD49EKrpUl2uUa1YJLucBzwWgAMOPrPx0UrWAsIjGTpj8xz1RrNGhX5nggF3gqWGRCGk3i7hsWkPgSuUuDuk22b7RgCn7ltbeEXKNaMBs03N3JyoSDZ4JNuWPueFRcKGLB4jKKwyQl3pOViRaQBPytw6LBwSPv9SZzLTwRbModnfewqdaIcXcWGNVFOP3GSIBMbcKNHG6Fcb1eVmuuBZtyb817xNRqRMhre6MJFd80V4ItubZqARGTclXhWLAkc7H0dOjN9/H2tkanvZEb+GZDdt5giJsU2bE8wGl2OxJsyrU3aFVV1TQ2f6aYfsHIlluSMQYrO3cA4rgebcRlZMfyAtxKO5IctmA+CaZX8qbMMtUagYGRXXv2U+VPv4phQ7fgQRgxHhFKJnOGQe6Wbbulx/KCy9F1QyMoO38wwhbMNw+JKb1py/Y9plo1gQ8KAz+hCkaW/XH4L7O09zH4JnTfusjPHwxHVQRncOsOV9Fmzhgr0EF/oaiUZheWUCH/LJzngMJXafN3u8TxMGwZrmBkGgID7oW4Dtk5HNIla5izZ/ccCUY/MT6dWrYfRJtMIZhewSyAaOAEnZiOYdKC5hW7nzKaNaeEj9Xc79guQUPnpH/sSDAwJWMaxZKMWFH2EdfRmcanHe4FeTTpiYwLe9JTFY4FA0syZ7K9ulhZ9rEx8h+uZC1YgpDcVZrJDTDdE8qUj4UWHAB7dbHtlOQlK9dQXH3bsxS1oQUHwZSMhg9T7zU1x+n6YfnGg9my/WVowbUAydwZb99ziFgzIRZy6DrYQ8EAQtG41c8ITy7QghWjBStGC1ZMqIIxxW7vmYQi2L9MXRFTglGn4zWWmWJC1RIWTDDKYGwahNOj8YqYEoyV6Cxq+Zsf0LSCubx/B3N1UQDBkNsgg5LP60erP/yCRk14mLeH2bNxS8wIxjh0w+60jOVacecDz3KZNLGk9EzBLBJyWebaz9aL7Yhrhk42HiT3P7cqYkkw1i9MvOcp8b4VhuR2lNx6wEnBz+OBcV9rSm7ehz75vFxsQ2CNb1rX68Jf4+uGmKoiMP3vNw+ImDBllni4/FDlL+J1wewFFJ/YidZ+fipz123YSs1a8fGQvbqKCCAYoGFjybdwfWqPaQUv0e4fjH8JNr9kFa0oWyt+R6wr30opLbPrXi6IOcHAlDzaT3JNTY34if/vY8VXG76LnFwQrYKxyj2gYBBAsj2MzI1AtWAnugR3ptJVa4ScX38/HFwwsKqL8WdKRp0b0cy1iCrBLDOj3410NXelBuSMp/jmlxkSZftamJLtDd+68i2UEokGTUZUCYYM3G3FpxtyQl00aEqeMOVJ+vSLDZSCRSvRIBdElWA3QDKGSTHm4GTCVRVnjWAAyViGKnsvUpxVgqMRLVgxWrBitGDFaMGK0YIVowUrRgtWjBasGC1YMU2zjviEZY0isn78D43o8OjRWGtOAAAAAElFTkSuQmCC;" parent="1" vertex="1">
          <mxGeometry x="161" y="358" width="50" height="50" as="geometry" />
        </mxCell>
        <mxCell id="H_-3jwhrtFPsAw-r3LHZ-20" value="2" style="ellipse;whiteSpace=wrap;html=1;aspect=fixed;fontColor=#FFFFFF;fontSize=8;strokeColor=#98A2AE;fontFamily=Manrope;fontSource=https://fonts.googleapis.com/css?family=Manrope;fillColor=#BEC8D2;strokeWidth=1;" parent="1" vertex="1">
          <mxGeometry x="211" y="372" width="10" height="10" as="geometry" />
        </mxCell>
        <mxCell id="H_-3jwhrtFPsAw-r3LHZ-136" value="3" style="ellipse;whiteSpace=wrap;html=1;aspect=fixed;fontColor=#FFFFFF;fontSize=8;strokeColor=#98A2AE;fontFamily=Manrope;fontSource=https://fonts.googleapis.com/css?family=Manrope;fillColor=#BEC8D2;strokeWidth=1;" parent="1" vertex="1">
          <mxGeometry x="211" y="384" width="10" height="10" as="geometry" />
        </mxCell>
        <mxCell id="H_-3jwhrtFPsAw-r3LHZ-157" value="1" style="ellipse;whiteSpace=wrap;html=1;aspect=fixed;fontColor=#FFFFFF;fontSize=8;strokeColor=#98A2AE;fontFamily=Manrope;fontSource=https://fonts.googleapis.com/css?family=Manrope;fillColor=#BEC8D2;strokeWidth=1;" parent="1" vertex="1">
          <mxGeometry x="181" y="413" width="10" height="10" as="geometry" />
        </mxCell>
        <mxCell id="H_-3jwhrtFPsAw-r3LHZ-69" value="&lt;font style=&quot;font-size: 10px;&quot;&gt;192.0.2.1&lt;/font&gt;" style="text;html=1;align=center;verticalAlign=middle;resizable=0;points=[];autosize=1;fontSize=14;fontFamily=Manrope;fontStyle=0;fontColor=#FFFFFF;" parent="1" vertex="1">
          <mxGeometry x="158" y="334" width="56" height="29" as="geometry" />
        </mxCell>
        <mxCell id="mzRQhtEMuZsxOnQZLncc-5" value="" style="shape=image;verticalLabelPosition=bottom;labelBackgroundColor=default;verticalAlign=top;aspect=fixed;imageAspect=0;image=data:image/png,iVBORw0KGgoAAAANSUhEUgAAAFgAAABZCAMAAACNFxOjAAAAAXNSR0IArs4c6QAAAARnQU1BAACxjwv8YQUAAAFWUExURQDJ/wDI/wDI/wDJ/wDP/wDC/wDD/wDE/wDF/wDG/wDH/wDI/wDJ/wDM/wDT/wDW/wHI/wPJ/wbK/wfL/wjL/wnK/wnL/wrK/wrL/wvK/wzL/w3L/w/M/xDM/xDN/xbO/xfO/xjO/xnO/xzP/x/P/x/Q/yHQ/ybR/yfR/y3T/y7T/y/T/zTU/zvV/z3W/z7V/z/W/0LX/0PX/0bX/0jY/0rY/0zZ/07Z/1Tb/1fb/1vc/13d/1/d/2nf/2rf/3Hh/3Lh/3Ph/3Th/3ni/3ri/3rj/3vj/3zj/33j/33k/4Hk/4rm/4vn/5Lo/5Xp/5bo/5rp/5zq/6Ts/6ns/6nt/6rt/7nw/7rw/7zw/7/x/9j3/9z4/934/974/9/4/+D4/+T5/+X5/+b5/+b6/+j6/+v7/+z7/+37/+77//D8//H8//T9//X9//b9//v+//3///7//////3UND5oAAAAFdFJOU6q7vujrXDDZEwAAAAlwSFlzAAAXEQAAFxEByibzPwAAAfFJREFUWEft2dlX00AUwOEApZ0l7KIoCMgOLiCK7LKprMqigIobWBFl6/3/XxjKnNssTXomaXi631N7TufXaSY9J5NYVqoqASnLqqyrSUBdpVVRayegtoLCGoURhRGFUdGwFMakHoqKhDlv7Og01NHEuR6u+cPs6c7Bn7/Hhr59HOauWfvCfOESonnjmrM3zCbURz5vbRva2lfDppmOXPOE5b0fcDrOmbmx/3DY6jgYnjB/DrCc9i1xabJ6EeCV42B4wuw15IY86+sgg7+SD1zAnONYeMOLkBsMDPOHd4R+6SN6z2AhJDwPucdBYT6V/fokqCz6zmE+Wlg2/ALYda68U5xw/ReAtQTCtujeeNcctHxxwrZgLPC0iBUOQ2FEYURhRGFEYURhRGFEYURhVCocekUfRvSEX9HPRp0x778ImzEfBVhK6zdG0nNq1xQclvd/qn2e3roZefEPjkL2eTabVFvM/c0Phjb31LAZx4R9YZupnxTNimttfGHJ1e4/+9tQ9vunEfc2whdWC8jvtrcZam8pfb9CkRHooahouBxuISwyZXKz28aweLZeJi/zZQxnVvXpGNv7jCvMZk/0DamYTt7m/4CFY9zySN9Di6nrQT5XCEe4PVjczSldCJcZhRGFEYURhZEKJ/aUN5nn0inrCux5hRTmlgq7AAAAAElFTkSuQmCC;fontSize=6;fontColor=#495766;" vertex="1" parent="1">
          <mxGeometry x="156" y="467" width="29.66" height="30" as="geometry" />
        </mxCell>
        <mxCell id="mzRQhtEMuZsxOnQZLncc-6" value="" style="shape=image;verticalLabelPosition=bottom;labelBackgroundColor=default;verticalAlign=top;aspect=fixed;imageAspect=0;image=data:image/png,iVBORw0KGgoAAAANSUhEUgAAAFgAAABYCAYAAABxlTA0AAAAAXNSR0IArs4c6QAAAARnQU1BAACxjwv8YQUAAAAJcEhZcwAAFxEAABcRAcom8z8AAAseSURBVHhe7ZtprF1VFcdbahFERBkURSUKaEVRRMUBwaEaFRGcccAYEK2KA0qd4myMQwwQ/ID6QU3UD8QxosYBg1gKtEBLaYEWa/so0JZ5aJmHLv+/c/e67p537rln2u+1elbyz7vvnD2s/d9rr732cGbMWGzWIwGW8XfLsp7gVOgJToye4MToCU6MnuDE6AlOjJ7gxOgJToye4MToCU6MnuDE6AlOjJ7gxOgJToye4MToCU6MnuDE6AlOjG2O4EXCRQEXBlxQEZ6evJQDiuqYSkw7wZDhBOn3Dnq25xKzZ15u9qIrzF6zyuxtq83e82+zeRNmH7vG7KQAfn9wrdm79e4t/zJ79UqzFyrPAcq7u8ooKn9S/akxLQR7o/X36ZeJIBF46kazP91utupes5seNHtwizWW+5X3xgfMrrrH7GyV+d0N6iR1wFNU17DuqbLuKSU4NG4PWdeHZHnn3ml2z8OBlTHykEi7S2nvfOi/uEMgP++qyGal//MdZu9fY/aYSwa6JLfqKSEYa1FjnrTU7NvrzTbKuvKy/n6z80T4j240++J1ZseLhCOvNnvJlWbPW2E2R8N+Xym7j6zwyQH8fpqezVk+SPMypT1aeU5U531ZZfz4JrOFmwbWnJfrVN9XlWbPS6XbwqBjke5tkZxgTTqzpPyn16mhGvqxXH632TeuNztcxOyGRfnwdfik5RNXGTxdnB/o3e4i8VVXDToXtxHLtSKa0TQso6gNbZCUYFnGQbK882VFsZyjYfpGTV47BMvOGpbSJ1J2IH9H/Y8/XpDT6W/SaT98NNacz98GSQgOxL1Ps/sm+T2XS+4ye71m+qGlpSR1FLxTZbFvF9FXRhaNKzlGLiZ7X5S3CTonODQAHxjL1+UKsJ5OlW+DoOeuF5udoQgmlo8r/Mv07MIAOiU4KP1N+TqXG2QVR8odJJ1I2gDfK93epVAxHm2f0ZzRiTF0SrAUnS/FXK5WTHugfHDnfi0FpOOLtUghunA5gcmvre6dEazeJkRyWXOfwiqFZZ1YAZZfBUV5Y4xLJzKfJYPwaIf4+hWKPlq1oROCNcyeqhn4lqAYC4CDFJuOVIxhyTsPjfhd1nAnZhyK8saokk66EE/fGxZA62TRhHmZrkXpx6E1wSgskv6qMMeFMGjk0FIDDlClxL9/1DL2N7cN/N0eNAKy47SBjJ/dbLZEEQhRSBGWCj/QAmUkCSr35bJE0l0qvECuoJQw6X7iRGiMhPpHGss4tCZYyrAR4/JDGjpKGT0/VpMJy9y8rJa/Phirj0kOBOcXB0Vy0eZc3hh6/mZ1ustcJt1RaR3S9Ve3hgyS15GnCcmtCJYVPForMIYRwqooW+MXWYcadLCWs/EmzkoRd000qfD7cfFwDARjdQhL7LNl8X+Q5Tu8s9jXmEQa/4MFWskp/nZhx41nw/dxHod0eOISs1uD21shXWfzfJyLyaMVwbLe+dcOFECOWzN4VphWvc9QQx4WyR/REJxNB+nd928YPEc+6TEoeXIEY1EzzhcghTT6i+tAighmuxPLmyuf+qUoLj9FOvOMd6SJ82wFteXkKCo6nqiirhU3JliN31XWuiFspOALZ2J5RT2sZ7P011dNf4cMOoK0IoV3bPYgGYlOVI7g38l68+8uu3vwbhLB0mVJeFcmy5QmKyuUtxX0bCf9XauICGErtbYVNyZYPfnhaCLAx43sXSk0SysmXALC5Da09NAp60IjfltAYlOC/V2ZsOGUlRXKmwTpOS9qJ5v/tay4EcFSho0aeh+5QsRhhSOVBGr8r8OkQQiUrfkhWc8/H7mZL2goDxsQymvqIl4qN3CU6nmDIoivKWpx+Zzq4xnvSBPnmQTp8CiNVF+AFPr6MjQiWBUcJgVdPhH7zVFQnsOjPMx17GBdqNnf5XZNWPuwOMGqyZMjmJOOc5WHRjrYREcKG87/6MUkF9U9nORCJ22VpwgyBF/+s/g4MB/tlKERwVLsTIVjCA3cOyalDMp3sjqjSFicHJUPhQLBq4JrKZPFXYdpMZSWM0KPgNi42krPMtQmODdkGPa1lJVih2lY/lQRBT7yYlnnGYoiWHxMUjoQzCnHeZvM/iErLcI/9e60jUo7qpOl3xGy4OWqD5+bWXAVg4ihMtABqeQSHbUJVkVzo5jynXWdPqBDvFNQkvxlDSYNIE0R/H1R3q4gHT8ajb7nK6YftqEMtQlWRd8L+6cE+XtVdQ9FqEOMpx2Fojx51Embh8jcX27igeAmPquJspJh1SJYys0UfNJh/6FSL/4vIHSOt/0vVdtei2BZKncLfKeJcKe2e9ieobZyfwO5WRHNY6vsstUiWBUcE83GTBz/NxYM1H5uELlUan9dgtlmRIhZueLU2P9uj1Bb9xdhHq4Nz+6K0jpqEaze8i08fFHjCWN7hdq7o5b8bK0i2R50ZwQHJ+9L07Pqxr9loGzKSomujEFWfI5ibyTbtOrMB0vBXbTAuD4sML6lpePY3qsCKchNSPZ24yVwl2AxtBP71F2QrDaz8EFWypJn8qys3MoEiwjO3TaHCIKguxOCtc4npkwt3HUb7uC1gdr8lbC3zAHAbkQSXRHMJkfw79md3NYESzH2lH3ZzejAx7Nl2QWwXMIpBGt7RKizUJeqUJuZ3BAWWlxCLHUTlQmWH2MN78LNx8y3FaWtCllUfNJACDjcjuwCC8w+sDYULpk3oWdtrVgEc/0VYVX3DO59dEXwoRHBr/U7ZkVpq0BKsTXJLhrCtuXIE5GmUFmcQPhG/3oN6UqLgzKIYA5uXZ7N1mVXBB+yIpQqORpra0OwFP3FLaEwyRF0WFuXUwSV+dZoccDOXat6lJcbP8h9suD9OrNgFcJw8CCbYdJYUQ3TN0W3gCA6CbmAESFD8HsbqM8dicb1Kd8p4SD0Nvn3sXvhdQjeKzrG3upopw5UzuM1TD3c4zYQx+OlSraFCGbD3D9X4PByFy0YGtWpNp+6YVAO1xUeSTllbq0ywSqEL4DcnzW67YIiahTfSbi8t4topAo0ajjacvm5j5oycoqgzuLQFrmAUxQ6qROCgQr3g0uO4CG8soKkU4N8LxnhG4opIRdQv/T/vcI3Fw5bs6iiRht2jhZbpbeYHLUIVmFuBYw2PjxB6cK0MWiAGvKp6BIHdxZ25l1K15CH6uIO3OpwRQDJ5pKqoZva+sro8LTS6KtrwXzk5xPd6ZyDjVMuWG5MLguLfQnQq3RO15Auz1Fo5XMJTTnBSR5nyUrjkQ+HvU+ocppTi2AgUrgfhvDdGpPHyF7U89lSmo5w4TuI7JLfuJ5PCdXNl03xjXbuTWRkjep0kXuo8viR0U+qzkFNCOY+lwsnw3sTBWABKAeomEYo3cLo3sOELHfayXVIX0iOPy3jnsYhrh9wwpWWL1J9m5IvSceu4By1CQaq3DfeEYg7ScvQ50o5cJx8E9ecYmFXq7Mb711BuswRAX7OhmChZ8kNHKvFCZfIuRE6X/NO/PEkFwIrt6MRwfgq9d6Z0a3IUYKv4ouj7Ju4UcNvOiGdmGy/s36wMhsnfMyYtWOcv3Y0IhgEwvgWjpvjeZnQTI3vHV4oqarQdADdpCOTH0bjYVgsi+Tqspv7dcgFjQkGQTHiYS5icPPwHQI+ms35jNgqfmpbAeRJZ/Z4+UaaTR0OObPvTUJbC/OVoRXBDioPymWo28vbGrpsTycE9xiNnuDE6AlOjJ7gxOgJToye4MToCU6MnuDE6AlOjJ7gxOgJToye4MToCU6MnuDE6AlOjJ7gxOgJTowhwfzo0T24lrtoy0pZsFju0T2Wblk+Y7H98j8Zkw021PXOAwAAAABJRU5ErkJggg==;fontSize=6;fontColor=#495766;" vertex="1" parent="1">
          <mxGeometry x="187" y="467" width="30" height="30" as="geometry" />
        </mxCell>
        <mxCell id="H_-3jwhrtFPsAw-r3LHZ-146" value="" style="shape=image;verticalLabelPosition=bottom;labelBackgroundColor=default;verticalAlign=top;aspect=fixed;imageAspect=0;image=data:image/png,iVBORw0KGgoAAAANSUhEUgAAAFgAAABYCAYAAABxlTA0AAAAAXNSR0IArs4c6QAAAARnQU1BAACxjwv8YQUAAAAJcEhZcwAAFxEAABcRAcom8z8AAAikSURBVHhe7ZwJbBRVGMe3pUBrASkUlVMpV6EUQSlCCqhEjbYiIQEUETFyVEAr3hDwquCFVE2EYoTWCBTk8KgmiBfGqDEoRbkE5JByWW9UtJTC5/d/MwPD8na7OzOvu4vvS35pd3bezPS337735r039flSskijiKZZf2nBKtGCFaMFK0YLVowWrBgtWDFasGK0YMVowYrRghUTlYIbX8IX1lv+XqwRVYKb9SFfYiYlpPYlX1IP+T6xRtQIhlxfF2rf4wbasHE7jc57lF+nyfeVgYyPS+cyncWHJI4n26+uiQrBpty0jFzavfcAIU6cOEE33jY1NMnnXkoJLfrSkFH308hx0ykzeyT5knvK961rIi7YytxuOSz3oJBrxQlm+JiHapfcqCc1aXcFVR2tFuUK5y7hMh3l+9Y1ERV8WuaeLtcKSB5Rm2QW3Ljt5VT582+izKw5xbx/J/m+dU3EBFtyOXP3VBwSYhBHzSw8Wm38tCKoZC3YjwDVwosvv04LFr0tft+6fQ/d9eBs8TsCdXLA6kILtgG5cWa1UHFK7qLlq1lKGyoqXiVe7913iHz1utJtEx8TrxGoLqQNnxZsg7tQPfuNoH0HK4UMxOIV75GvQQZLuYhKSt8V2yr2/0gNL8jmbe1ofP5Msc2K2yc/Tr6G3U8dUwu2kdCVcoffLUQgFiNzIfeci1lKOhUveUdsh+DElv2N7hZnrF3yHPQSErrxxZt3e1qwDVH/duL+6gx6lbPVl8RiIdesl88Q3KiXIdLXge6Z/jy9ULRUVB3o+548phYsoSHfbTXgrznGHSAX2wIJxnuQjP2R7Xa5QAuW0BT4DegEEyzK8P7+ZYAWHCK1CQ6EFhwiWrBiIi0YjafV4Mred4IWbMLnzhkxhdp1v150JT2T/L8XzI1mHN/8jJ1cIMpu2rqTUtsMNLLZC8laMAvmu8LSVe+LsojyjdupuVeSdRXBNO5F8Uk9xC27FetZsshkt9WFFsxAIBo3vomxSy7fZEp2k8lasEkzBrftfLfon8muqgvHgnGyZL4gliImGj3h/JPDlW4Ez5hZxMdK9Tt2qFzItKEX5y+j48ePi+OJ6qKtQ8mOBfMnnX3tOCopfYezrswTFrLcHbsqxB/lRvD6b7fR3KKl4sMKm5I36CUuO2/hSvrn3ypxPAQavgsuGmRUJbJrCIRjwb6ONPn+Z8zTex8/saxwBDdhwX/+fcQsrSY+W7eREs7pceZgUzAcC45Pp+FjptL+A5Ui27xkHx/zy683GQPu3MJLz2+H90luPZDLbKadu/fR9/wtcAyX37FzL33DDVx19TFTLdERzubcYfkUl5QJafLrkOFYMPcf66VeRkmt+otM85IkRsiVnTcI9VL7ivURWBnkCC5bD3UsN5AYe64+Zgg+8k8VDcrN4+0dpOcNimPB4NzexldYBRgnlp0zGE24DMo5AWXF7MmFNOm+p4VYBORemTPemVzgSvDZBOpVXxrlP/ScqZZEIzcod4JzuUCJ4EAD49EKrpUl2uUa1YJLucBzwWgAMOPrPx0UrWAsIjGTpj8xz1RrNGhX5nggF3gqWGRCGk3i7hsWkPgSuUuDuk22b7RgCn7ltbeEXKNaMBs03N3JyoSDZ4JNuWPueFRcKGLB4jKKwyQl3pOViRaQBPytw6LBwSPv9SZzLTwRbModnfewqdaIcXcWGNVFOP3GSIBMbcKNHG6Fcb1eVmuuBZtyb817xNRqRMhre6MJFd80V4ItubZqARGTclXhWLAkc7H0dOjN9/H2tkanvZEb+GZDdt5giJsU2bE8wGl2OxJsyrU3aFVV1TQ2f6aYfsHIlluSMQYrO3cA4rgebcRlZMfyAtxKO5IctmA+CaZX8qbMMtUagYGRXXv2U+VPv4phQ7fgQRgxHhFKJnOGQe6Wbbulx/KCy9F1QyMoO38wwhbMNw+JKb1py/Y9plo1gQ8KAz+hCkaW/XH4L7O09zH4JnTfusjPHwxHVQRncOsOV9Fmzhgr0EF/oaiUZheWUCH/LJzngMJXafN3u8TxMGwZrmBkGgID7oW4Dtk5HNIla5izZ/ccCUY/MT6dWrYfRJtMIZhewSyAaOAEnZiOYdKC5hW7nzKaNaeEj9Xc79guQUPnpH/sSDAwJWMaxZKMWFH2EdfRmcanHe4FeTTpiYwLe9JTFY4FA0syZ7K9ulhZ9rEx8h+uZC1YgpDcVZrJDTDdE8qUj4UWHAB7dbHtlOQlK9dQXH3bsxS1oQUHwZSMhg9T7zU1x+n6YfnGg9my/WVowbUAydwZb99ziFgzIRZy6DrYQ8EAQtG41c8ITy7QghWjBStGC1ZMqIIxxW7vmYQi2L9MXRFTglGn4zWWmWJC1RIWTDDKYGwahNOj8YqYEoyV6Cxq+Zsf0LSCubx/B3N1UQDBkNsgg5LP60erP/yCRk14mLeH2bNxS8wIxjh0w+60jOVacecDz3KZNLGk9EzBLBJyWebaz9aL7Yhrhk42HiT3P7cqYkkw1i9MvOcp8b4VhuR2lNx6wEnBz+OBcV9rSm7ehz75vFxsQ2CNb1rX68Jf4+uGmKoiMP3vNw+ImDBllni4/FDlL+J1wewFFJ/YidZ+fipz123YSs1a8fGQvbqKCCAYoGFjybdwfWqPaQUv0e4fjH8JNr9kFa0oWyt+R6wr30opLbPrXi6IOcHAlDzaT3JNTY34if/vY8VXG76LnFwQrYKxyj2gYBBAsj2MzI1AtWAnugR3ptJVa4ScX38/HFwwsKqL8WdKRp0b0cy1iCrBLDOj3410NXelBuSMp/jmlxkSZftamJLtDd+68i2UEokGTUZUCYYM3G3FpxtyQl00aEqeMOVJ+vSLDZSCRSvRIBdElWA3QDKGSTHm4GTCVRVnjWAAyViGKnsvUpxVgqMRLVgxWrBitGDFaMGK0YIVowUrRgtWjBasGC1YMU2zjviEZY0isn78D43o8OjRWGtOAAAAAElFTkSuQmCC;" parent="1" vertex="1">
          <mxGeometry x="482" y="436" width="50" height="50" as="geometry" />
        </mxCell>
        <mxCell id="H_-3jwhrtFPsAw-r3LHZ-147" value="2" style="ellipse;whiteSpace=wrap;html=1;aspect=fixed;fontColor=#FFFFFF;fontSize=8;strokeColor=#98A2AE;fontFamily=Manrope;fontSource=https://fonts.googleapis.com/css?family=Manrope;fillColor=#BEC8D2;strokeWidth=1;" parent="1" vertex="1">
          <mxGeometry x="502" y="426" width="10" height="10" as="geometry" />
        </mxCell>
        <mxCell id="H_-3jwhrtFPsAw-r3LHZ-148" value="3" style="ellipse;whiteSpace=wrap;html=1;aspect=fixed;fontColor=#FFFFFF;fontSize=8;strokeColor=#98A2AE;fontFamily=Manrope;fontSource=https://fonts.googleapis.com/css?family=Manrope;fillColor=#BEC8D2;strokeWidth=1;" parent="1" vertex="1">
          <mxGeometry x="472" y="456" width="10" height="10" as="geometry" />
        </mxCell>
        <mxCell id="H_-3jwhrtFPsAw-r3LHZ-149" value="1" style="ellipse;whiteSpace=wrap;html=1;aspect=fixed;fontColor=#FFFFFF;fontSize=8;strokeColor=#98A2AE;fontFamily=Manrope;fontSource=https://fonts.googleapis.com/css?family=Manrope;fillColor=#BEC8D2;strokeWidth=1;" parent="1" vertex="1">
          <mxGeometry x="532" y="456" width="10" height="10" as="geometry" />
        </mxCell>
        <mxCell id="H_-3jwhrtFPsAw-r3LHZ-175" value="&lt;font style=&quot;font-size: 10px;&quot;&gt;192.0.2.6&lt;/font&gt;" style="text;html=1;align=center;verticalAlign=middle;resizable=0;points=[];autosize=1;fontSize=14;fontFamily=Manrope;fontStyle=0;fontColor=#FFFFFF;" parent="1" vertex="1">
          <mxGeometry x="478" y="477" width="59" height="29" as="geometry" />
        </mxCell>
        <mxCell id="H_-3jwhrtFPsAw-r3LHZ-150" value="" style="shape=image;verticalLabelPosition=bottom;labelBackgroundColor=default;verticalAlign=top;aspect=fixed;imageAspect=0;image=data:image/png,iVBORw0KGgoAAAANSUhEUgAAAFgAAABYCAYAAABxlTA0AAAAAXNSR0IArs4c6QAAAARnQU1BAACxjwv8YQUAAAAJcEhZcwAAFxEAABcRAcom8z8AAAikSURBVHhe7ZwJbBRVGMe3pUBrASkUlVMpV6EUQSlCCqhEjbYiIQEUETFyVEAr3hDwquCFVE2EYoTWCBTk8KgmiBfGqDEoRbkE5JByWW9UtJTC5/d/MwPD8na7OzOvu4vvS35pd3bezPS337735r039flSskijiKZZf2nBKtGCFaMFK0YLVowWrBgtWDFasGK0YMVowYrRghUTlYIbX8IX1lv+XqwRVYKb9SFfYiYlpPYlX1IP+T6xRtQIhlxfF2rf4wbasHE7jc57lF+nyfeVgYyPS+cyncWHJI4n26+uiQrBpty0jFzavfcAIU6cOEE33jY1NMnnXkoJLfrSkFH308hx0ykzeyT5knvK961rIi7YytxuOSz3oJBrxQlm+JiHapfcqCc1aXcFVR2tFuUK5y7hMh3l+9Y1ERV8WuaeLtcKSB5Rm2QW3Ljt5VT582+izKw5xbx/J/m+dU3EBFtyOXP3VBwSYhBHzSw8Wm38tCKoZC3YjwDVwosvv04LFr0tft+6fQ/d9eBs8TsCdXLA6kILtgG5cWa1UHFK7qLlq1lKGyoqXiVe7913iHz1utJtEx8TrxGoLqQNnxZsg7tQPfuNoH0HK4UMxOIV75GvQQZLuYhKSt8V2yr2/0gNL8jmbe1ofP5Msc2K2yc/Tr6G3U8dUwu2kdCVcoffLUQgFiNzIfeci1lKOhUveUdsh+DElv2N7hZnrF3yHPQSErrxxZt3e1qwDVH/duL+6gx6lbPVl8RiIdesl88Q3KiXIdLXge6Z/jy9ULRUVB3o+548phYsoSHfbTXgrznGHSAX2wIJxnuQjP2R7Xa5QAuW0BT4DegEEyzK8P7+ZYAWHCK1CQ6EFhwiWrBiIi0YjafV4Mred4IWbMLnzhkxhdp1v150JT2T/L8XzI1mHN/8jJ1cIMpu2rqTUtsMNLLZC8laMAvmu8LSVe+LsojyjdupuVeSdRXBNO5F8Uk9xC27FetZsshkt9WFFsxAIBo3vomxSy7fZEp2k8lasEkzBrftfLfon8muqgvHgnGyZL4gliImGj3h/JPDlW4Ez5hZxMdK9Tt2qFzItKEX5y+j48ePi+OJ6qKtQ8mOBfMnnX3tOCopfYezrswTFrLcHbsqxB/lRvD6b7fR3KKl4sMKm5I36CUuO2/hSvrn3ypxPAQavgsuGmRUJbJrCIRjwb6ONPn+Z8zTex8/saxwBDdhwX/+fcQsrSY+W7eREs7pceZgUzAcC45Pp+FjptL+A5Ui27xkHx/zy683GQPu3MJLz2+H90luPZDLbKadu/fR9/wtcAyX37FzL33DDVx19TFTLdERzubcYfkUl5QJafLrkOFYMPcf66VeRkmt+otM85IkRsiVnTcI9VL7ivURWBnkCC5bD3UsN5AYe64+Zgg+8k8VDcrN4+0dpOcNimPB4NzexldYBRgnlp0zGE24DMo5AWXF7MmFNOm+p4VYBORemTPemVzgSvDZBOpVXxrlP/ScqZZEIzcod4JzuUCJ4EAD49EKrpUl2uUa1YJLucBzwWgAMOPrPx0UrWAsIjGTpj8xz1RrNGhX5nggF3gqWGRCGk3i7hsWkPgSuUuDuk22b7RgCn7ltbeEXKNaMBs03N3JyoSDZ4JNuWPueFRcKGLB4jKKwyQl3pOViRaQBPytw6LBwSPv9SZzLTwRbModnfewqdaIcXcWGNVFOP3GSIBMbcKNHG6Fcb1eVmuuBZtyb817xNRqRMhre6MJFd80V4ItubZqARGTclXhWLAkc7H0dOjN9/H2tkanvZEb+GZDdt5giJsU2bE8wGl2OxJsyrU3aFVV1TQ2f6aYfsHIlluSMQYrO3cA4rgebcRlZMfyAtxKO5IctmA+CaZX8qbMMtUagYGRXXv2U+VPv4phQ7fgQRgxHhFKJnOGQe6Wbbulx/KCy9F1QyMoO38wwhbMNw+JKb1py/Y9plo1gQ8KAz+hCkaW/XH4L7O09zH4JnTfusjPHwxHVQRncOsOV9Fmzhgr0EF/oaiUZheWUCH/LJzngMJXafN3u8TxMGwZrmBkGgID7oW4Dtk5HNIla5izZ/ccCUY/MT6dWrYfRJtMIZhewSyAaOAEnZiOYdKC5hW7nzKaNaeEj9Xc79guQUPnpH/sSDAwJWMaxZKMWFH2EdfRmcanHe4FeTTpiYwLe9JTFY4FA0syZ7K9ulhZ9rEx8h+uZC1YgpDcVZrJDTDdE8qUj4UWHAB7dbHtlOQlK9dQXH3bsxS1oQUHwZSMhg9T7zU1x+n6YfnGg9my/WVowbUAydwZb99ziFgzIRZy6DrYQ8EAQtG41c8ITy7QghWjBStGC1ZMqIIxxW7vmYQi2L9MXRFTglGn4zWWmWJC1RIWTDDKYGwahNOj8YqYEoyV6Cxq+Zsf0LSCubx/B3N1UQDBkNsgg5LP60erP/yCRk14mLeH2bNxS8wIxjh0w+60jOVacecDz3KZNLGk9EzBLBJyWebaz9aL7Yhrhk42HiT3P7cqYkkw1i9MvOcp8b4VhuR2lNx6wEnBz+OBcV9rSm7ehz75vFxsQ2CNb1rX68Jf4+uGmKoiMP3vNw+ImDBllni4/FDlL+J1wewFFJ/YidZ+fipz123YSs1a8fGQvbqKCCAYoGFjybdwfWqPaQUv0e4fjH8JNr9kFa0oWyt+R6wr30opLbPrXi6IOcHAlDzaT3JNTY34if/vY8VXG76LnFwQrYKxyj2gYBBAsj2MzI1AtWAnugR3ptJVa4ScX38/HFwwsKqL8WdKRp0b0cy1iCrBLDOj3410NXelBuSMp/jmlxkSZftamJLtDd+68i2UEokGTUZUCYYM3G3FpxtyQl00aEqeMOVJ+vSLDZSCRSvRIBdElWA3QDKGSTHm4GTCVRVnjWAAyViGKnsvUpxVgqMRLVgxWrBitGDFaMGK0YIVowUrRgtWjBasGC1YMU2zjviEZY0isn78D43o8OjRWGtOAAAAAElFTkSuQmCC;" parent="1" vertex="1">
          <mxGeometry x="482" y="278" width="50" height="50" as="geometry" />
        </mxCell>
        <mxCell id="H_-3jwhrtFPsAw-r3LHZ-151" value="1" style="ellipse;whiteSpace=wrap;html=1;aspect=fixed;fontColor=#FFFFFF;fontSize=8;strokeColor=#98A2AE;fontFamily=Manrope;fontSource=https://fonts.googleapis.com/css?family=Manrope;fillColor=#BEC8D2;strokeWidth=1;" parent="1" vertex="1">
          <mxGeometry x="532" y="298" width="10" height="10" as="geometry" />
        </mxCell>
        <mxCell id="H_-3jwhrtFPsAw-r3LHZ-152" value="2" style="ellipse;whiteSpace=wrap;html=1;aspect=fixed;fontColor=#FFFFFF;fontSize=8;strokeColor=#98A2AE;fontFamily=Manrope;fontSource=https://fonts.googleapis.com/css?family=Manrope;fillColor=#BEC8D2;strokeWidth=1;" parent="1" vertex="1">
          <mxGeometry x="502" y="328" width="10" height="10" as="geometry" />
        </mxCell>
        <mxCell id="H_-3jwhrtFPsAw-r3LHZ-153" value="3" style="ellipse;whiteSpace=wrap;html=1;aspect=fixed;fontColor=#FFFFFF;fontSize=8;strokeColor=#98A2AE;fontFamily=Manrope;fontSource=https://fonts.googleapis.com/css?family=Manrope;fillColor=#BEC8D2;strokeWidth=1;" parent="1" vertex="1">
          <mxGeometry x="472" y="298" width="10" height="10" as="geometry" />
        </mxCell>
        <mxCell id="mzRQhtEMuZsxOnQZLncc-7" value="&lt;font style=&quot;font-size: 8px;&quot;&gt;R1&lt;/font&gt;" style="text;html=1;align=center;verticalAlign=middle;resizable=0;points=[];autosize=1;fontSize=14;fontFamily=Manrope;fontStyle=0;fontColor=#FFFFFF;" vertex="1" parent="1">
          <mxGeometry x="155.82999999999998" y="348" width="26" height="29" as="geometry" />
        </mxCell>
        <mxCell id="mzRQhtEMuZsxOnQZLncc-8" value="&lt;font style=&quot;font-size: 8px;&quot;&gt;R3&lt;/font&gt;" style="text;html=1;align=center;verticalAlign=middle;resizable=0;points=[];autosize=1;fontSize=14;fontFamily=Manrope;fontStyle=0;fontColor=#FFFFFF;" vertex="1" parent="1">
          <mxGeometry x="292" y="266" width="27" height="29" as="geometry" />
        </mxCell>
        <mxCell id="mzRQhtEMuZsxOnQZLncc-9" value="&lt;font style=&quot;font-size: 8px;&quot;&gt;R5&lt;/font&gt;" style="text;html=1;align=center;verticalAlign=middle;resizable=0;points=[];autosize=1;fontSize=14;fontFamily=Manrope;fontStyle=0;fontColor=#FFFFFF;" vertex="1" parent="1">
          <mxGeometry x="476" y="266" width="28" height="29" as="geometry" />
        </mxCell>
        <mxCell id="mzRQhtEMuZsxOnQZLncc-10" value="&lt;font style=&quot;font-size: 8px;&quot;&gt;R2&lt;/font&gt;" style="text;html=1;align=center;verticalAlign=middle;resizable=0;points=[];autosize=1;fontSize=14;fontFamily=Manrope;fontStyle=0;fontColor=#FFFFFF;" vertex="1" parent="1">
          <mxGeometry x="647" y="382" width="28" height="29" as="geometry" />
        </mxCell>
        <mxCell id="mzRQhtEMuZsxOnQZLncc-11" value="&lt;font style=&quot;font-size: 8px;&quot;&gt;R6&lt;/font&gt;" style="text;html=1;align=center;verticalAlign=middle;resizable=0;points=[];autosize=1;fontSize=14;fontFamily=Manrope;fontStyle=0;fontColor=#FFFFFF;" vertex="1" parent="1">
          <mxGeometry x="476" y="460" width="28" height="29" as="geometry" />
        </mxCell>
        <mxCell id="H_-3jwhrtFPsAw-r3LHZ-141" value="" style="shape=image;verticalLabelPosition=bottom;labelBackgroundColor=default;verticalAlign=top;aspect=fixed;imageAspect=0;image=data:image/png,iVBORw0KGgoAAAANSUhEUgAAAFgAAABYCAYAAABxlTA0AAAAAXNSR0IArs4c6QAAAARnQU1BAACxjwv8YQUAAAAJcEhZcwAAFxEAABcRAcom8z8AAAikSURBVHhe7ZwJbBRVGMe3pUBrASkUlVMpV6EUQSlCCqhEjbYiIQEUETFyVEAr3hDwquCFVE2EYoTWCBTk8KgmiBfGqDEoRbkE5JByWW9UtJTC5/d/MwPD8na7OzOvu4vvS35pd3bezPS337735r039flSskijiKZZf2nBKtGCFaMFK0YLVowWrBgtWDFasGK0YMVowYrRghUTlYIbX8IX1lv+XqwRVYKb9SFfYiYlpPYlX1IP+T6xRtQIhlxfF2rf4wbasHE7jc57lF+nyfeVgYyPS+cyncWHJI4n26+uiQrBpty0jFzavfcAIU6cOEE33jY1NMnnXkoJLfrSkFH308hx0ykzeyT5knvK961rIi7YytxuOSz3oJBrxQlm+JiHapfcqCc1aXcFVR2tFuUK5y7hMh3l+9Y1ERV8WuaeLtcKSB5Rm2QW3Ljt5VT582+izKw5xbx/J/m+dU3EBFtyOXP3VBwSYhBHzSw8Wm38tCKoZC3YjwDVwosvv04LFr0tft+6fQ/d9eBs8TsCdXLA6kILtgG5cWa1UHFK7qLlq1lKGyoqXiVe7913iHz1utJtEx8TrxGoLqQNnxZsg7tQPfuNoH0HK4UMxOIV75GvQQZLuYhKSt8V2yr2/0gNL8jmbe1ofP5Msc2K2yc/Tr6G3U8dUwu2kdCVcoffLUQgFiNzIfeci1lKOhUveUdsh+DElv2N7hZnrF3yHPQSErrxxZt3e1qwDVH/duL+6gx6lbPVl8RiIdesl88Q3KiXIdLXge6Z/jy9ULRUVB3o+548phYsoSHfbTXgrznGHSAX2wIJxnuQjP2R7Xa5QAuW0BT4DegEEyzK8P7+ZYAWHCK1CQ6EFhwiWrBiIi0YjafV4Mred4IWbMLnzhkxhdp1v150JT2T/L8XzI1mHN/8jJ1cIMpu2rqTUtsMNLLZC8laMAvmu8LSVe+LsojyjdupuVeSdRXBNO5F8Uk9xC27FetZsshkt9WFFsxAIBo3vomxSy7fZEp2k8lasEkzBrftfLfon8muqgvHgnGyZL4gliImGj3h/JPDlW4Ez5hZxMdK9Tt2qFzItKEX5y+j48ePi+OJ6qKtQ8mOBfMnnX3tOCopfYezrswTFrLcHbsqxB/lRvD6b7fR3KKl4sMKm5I36CUuO2/hSvrn3ypxPAQavgsuGmRUJbJrCIRjwb6ONPn+Z8zTex8/saxwBDdhwX/+fcQsrSY+W7eREs7pceZgUzAcC45Pp+FjptL+A5Ui27xkHx/zy683GQPu3MJLz2+H90luPZDLbKadu/fR9/wtcAyX37FzL33DDVx19TFTLdERzubcYfkUl5QJafLrkOFYMPcf66VeRkmt+otM85IkRsiVnTcI9VL7ivURWBnkCC5bD3UsN5AYe64+Zgg+8k8VDcrN4+0dpOcNimPB4NzexldYBRgnlp0zGE24DMo5AWXF7MmFNOm+p4VYBORemTPemVzgSvDZBOpVXxrlP/ScqZZEIzcod4JzuUCJ4EAD49EKrpUl2uUa1YJLucBzwWgAMOPrPx0UrWAsIjGTpj8xz1RrNGhX5nggF3gqWGRCGk3i7hsWkPgSuUuDuk22b7RgCn7ltbeEXKNaMBs03N3JyoSDZ4JNuWPueFRcKGLB4jKKwyQl3pOViRaQBPytw6LBwSPv9SZzLTwRbModnfewqdaIcXcWGNVFOP3GSIBMbcKNHG6Fcb1eVmuuBZtyb817xNRqRMhre6MJFd80V4ItubZqARGTclXhWLAkc7H0dOjN9/H2tkanvZEb+GZDdt5giJsU2bE8wGl2OxJsyrU3aFVV1TQ2f6aYfsHIlluSMQYrO3cA4rgebcRlZMfyAtxKO5IctmA+CaZX8qbMMtUagYGRXXv2U+VPv4phQ7fgQRgxHhFKJnOGQe6Wbbulx/KCy9F1QyMoO38wwhbMNw+JKb1py/Y9plo1gQ8KAz+hCkaW/XH4L7O09zH4JnTfusjPHwxHVQRncOsOV9Fmzhgr0EF/oaiUZheWUCH/LJzngMJXafN3u8TxMGwZrmBkGgID7oW4Dtk5HNIla5izZ/ccCUY/MT6dWrYfRJtMIZhewSyAaOAEnZiOYdKC5hW7nzKaNaeEj9Xc79guQUPnpH/sSDAwJWMaxZKMWFH2EdfRmcanHe4FeTTpiYwLe9JTFY4FA0syZ7K9ulhZ9rEx8h+uZC1YgpDcVZrJDTDdE8qUj4UWHAB7dbHtlOQlK9dQXH3bsxS1oQUHwZSMhg9T7zU1x+n6YfnGg9my/WVowbUAydwZb99ziFgzIRZy6DrYQ8EAQtG41c8ITy7QghWjBStGC1ZMqIIxxW7vmYQi2L9MXRFTglGn4zWWmWJC1RIWTDDKYGwahNOj8YqYEoyV6Cxq+Zsf0LSCubx/B3N1UQDBkNsgg5LP60erP/yCRk14mLeH2bNxS8wIxjh0w+60jOVacecDz3KZNLGk9EzBLBJyWebaz9aL7Yhrhk42HiT3P7cqYkkw1i9MvOcp8b4VhuR2lNx6wEnBz+OBcV9rSm7ehz75vFxsQ2CNb1rX68Jf4+uGmKoiMP3vNw+ImDBllni4/FDlL+J1wewFFJ/YidZ+fipz123YSs1a8fGQvbqKCCAYoGFjybdwfWqPaQUv0e4fjH8JNr9kFa0oWyt+R6wr30opLbPrXi6IOcHAlDzaT3JNTY34if/vY8VXG76LnFwQrYKxyj2gYBBAsj2MzI1AtWAnugR3ptJVa4ScX38/HFwwsKqL8WdKRp0b0cy1iCrBLDOj3410NXelBuSMp/jmlxkSZftamJLtDd+68i2UEokGTUZUCYYM3G3FpxtyQl00aEqeMOVJ+vSLDZSCRSvRIBdElWA3QDKGSTHm4GTCVRVnjWAAyViGKnsvUpxVgqMRLVgxWrBitGDFaMGK0YIVowUrRgtWjBasGC1YMU2zjviEZY0isn78D43o8OjRWGtOAAAAAElFTkSuQmCC;" parent="1" vertex="1">
          <mxGeometry x="299" y="436" width="50" height="50" as="geometry" />
        </mxCell>
        <mxCell id="H_-3jwhrtFPsAw-r3LHZ-142" value="2" style="ellipse;whiteSpace=wrap;html=1;aspect=fixed;fontColor=#FFFFFF;fontSize=8;strokeColor=#98A2AE;fontFamily=Manrope;fontSource=https://fonts.googleapis.com/css?family=Manrope;fillColor=#BEC8D2;strokeWidth=1;" parent="1" vertex="1">
          <mxGeometry x="319" y="426" width="10" height="10" as="geometry" />
        </mxCell>
        <mxCell id="H_-3jwhrtFPsAw-r3LHZ-143" value="1" style="ellipse;whiteSpace=wrap;html=1;aspect=fixed;fontColor=#FFFFFF;fontSize=8;strokeColor=#98A2AE;fontFamily=Manrope;fontSource=https://fonts.googleapis.com/css?family=Manrope;fillColor=#BEC8D2;strokeWidth=1;" parent="1" vertex="1">
          <mxGeometry x="289" y="456" width="10" height="10" as="geometry" />
        </mxCell>
        <mxCell id="H_-3jwhrtFPsAw-r3LHZ-144" value="3" style="ellipse;whiteSpace=wrap;html=1;aspect=fixed;fontColor=#FFFFFF;fontSize=8;strokeColor=#98A2AE;fontFamily=Manrope;fontSource=https://fonts.googleapis.com/css?family=Manrope;fillColor=#BEC8D2;strokeWidth=1;" parent="1" vertex="1">
          <mxGeometry x="349" y="456" width="10" height="10" as="geometry" />
        </mxCell>
        <mxCell id="H_-3jwhrtFPsAw-r3LHZ-174" value="&lt;font style=&quot;font-size: 10px;&quot;&gt;192.0.2.4&lt;/font&gt;" style="text;html=1;align=center;verticalAlign=middle;resizable=0;points=[];autosize=1;fontSize=14;fontFamily=Manrope;fontStyle=0;fontColor=#FFFFFF;" parent="1" vertex="1">
          <mxGeometry x="295" y="476" width="59" height="29" as="geometry" />
        </mxCell>
        <mxCell id="mzRQhtEMuZsxOnQZLncc-12" value="&lt;font style=&quot;font-size: 8px;&quot;&gt;R4&lt;/font&gt;" style="text;html=1;align=center;verticalAlign=middle;resizable=0;points=[];autosize=1;fontSize=14;fontFamily=Manrope;fontStyle=0;fontColor=#FFFFFF;" vertex="1" parent="1">
          <mxGeometry x="292" y="460" width="28" height="29" as="geometry" />
        </mxCell>
        <mxCell id="mzRQhtEMuZsxOnQZLncc-1" value="VPN" style="ellipse;whiteSpace=wrap;html=1;fillColor=#d5e8d4;strokeColor=none;" vertex="1" parent="1">
          <mxGeometry x="164.5" y="390" width="43" height="22" as="geometry" />
        </mxCell>
        <mxCell id="mzRQhtEMuZsxOnQZLncc-13" value="VPN" style="ellipse;whiteSpace=wrap;html=1;fillColor=#d5e8d4;strokeColor=none;" vertex="1" parent="1">
          <mxGeometry x="624.5" y="354" width="43" height="22" as="geometry" />
        </mxCell>
        <mxCell id="mzRQhtEMuZsxOnQZLncc-15" value="" style="endArrow=blockThin;html=1;rounded=0;fontSize=10;fontColor=#495766;endFill=1;" edge="1" parent="1">
          <mxGeometry width="50" height="50" relative="1" as="geometry">
            <mxPoint x="246" y="372" as="sourcePoint" />
            <mxPoint x="280" y="333" as="targetPoint" />
          </mxGeometry>
        </mxCell>
        <mxCell id="mzRQhtEMuZsxOnQZLncc-16" value="" style="endArrow=blockThin;html=1;rounded=0;fontSize=10;fontColor=#495766;endFill=1;" edge="1" parent="1">
          <mxGeometry width="50" height="50" relative="1" as="geometry">
            <mxPoint x="244" y="396" as="sourcePoint" />
            <mxPoint x="279" y="433" as="targetPoint" />
          </mxGeometry>
        </mxCell>
        <mxCell id="mzRQhtEMuZsxOnQZLncc-18" value="" style="endArrow=blockThin;html=1;rounded=0;fontSize=10;fontColor=#495766;endFill=1;" edge="1" parent="1">
          <mxGeometry width="50" height="50" relative="1" as="geometry">
            <mxPoint x="393" y="311" as="sourcePoint" />
            <mxPoint x="441" y="311" as="targetPoint" />
          </mxGeometry>
        </mxCell>
        <mxCell id="mzRQhtEMuZsxOnQZLncc-19" value="" style="endArrow=blockThin;html=1;rounded=0;fontSize=10;fontColor=#495766;endFill=1;" edge="1" parent="1">
          <mxGeometry width="50" height="50" relative="1" as="geometry">
            <mxPoint x="394" y="452.67" as="sourcePoint" />
            <mxPoint x="442" y="452.67" as="targetPoint" />
          </mxGeometry>
        </mxCell>
        <mxCell id="mzRQhtEMuZsxOnQZLncc-20" value="" style="endArrow=blockThin;html=1;rounded=0;fontSize=10;fontColor=#495766;endFill=1;" edge="1" parent="1">
          <mxGeometry width="50" height="50" relative="1" as="geometry">
            <mxPoint x="333" y="359.83" as="sourcePoint" />
            <mxPoint x="333" y="397" as="targetPoint" />
          </mxGeometry>
        </mxCell>
        <mxCell id="mzRQhtEMuZsxOnQZLncc-21" value="" style="endArrow=blockThin;html=1;rounded=0;fontSize=10;fontColor=#495766;endFill=1;" edge="1" parent="1">
          <mxGeometry width="50" height="50" relative="1" as="geometry">
            <mxPoint x="499" y="362.8299999999999" as="sourcePoint" />
            <mxPoint x="499" y="400" as="targetPoint" />
          </mxGeometry>
        </mxCell>
        <mxCell id="mzRQhtEMuZsxOnQZLncc-22" value="" style="endArrow=blockThin;html=1;rounded=0;fontSize=10;fontColor=#495766;endFill=1;" edge="1" parent="1">
          <mxGeometry width="50" height="50" relative="1" as="geometry">
            <mxPoint x="555" y="337" as="sourcePoint" />
            <mxPoint x="586" y="370" as="targetPoint" />
          </mxGeometry>
        </mxCell>
        <mxCell id="mzRQhtEMuZsxOnQZLncc-23" value="" style="endArrow=blockThin;html=1;rounded=0;fontSize=10;fontColor=#495766;endFill=1;" edge="1" parent="1">
          <mxGeometry width="50" height="50" relative="1" as="geometry">
            <mxPoint x="554" y="429" as="sourcePoint" />
            <mxPoint x="585" y="398" as="targetPoint" />
          </mxGeometry>
        </mxCell>
        <mxCell id="mzRQhtEMuZsxOnQZLncc-24" value="&lt;font style=&quot;font-size: 8px;&quot;&gt;20ms&lt;/font&gt;" style="text;html=1;strokeColor=none;fillColor=none;align=center;verticalAlign=middle;whiteSpace=wrap;rounded=0;fontSize=9;" vertex="1" parent="1">
          <mxGeometry x="545" y="403" width="28" height="12" as="geometry" />
        </mxCell>
      </root>
    </mxGraphModel>
  </diagram>
</mxfile>
